<svg version="1.2" xmlns="http://www.w3.org/2000/svg" viewBox="0 0 1000 578" width="1000" height="578">
	<style>
		.s0 { fill: #2f2f2b } 
		.s1 { fill: #ffffff } 
	</style>
	<g id="Layer 1">
		<path id="&lt;Path&gt;" class="s0" d="m999.91 578h-999.91v-577.92h999.91z"/>
		<g id="&lt;Group&gt;">
			<g id="&lt;Group&gt;">
				<path id="&lt;Path&gt;" class="s1" d="m55.99 527.63l34.82-41.97q1.14-1.41 0.95-2.87c-0.13-0.98-0.66-1.83-1.7-2.58q-1.62-1.1-3.94-1.11h-2.24c-1.83 0-3.12 0.41-4.06 1.39l-28.93 34.51-37.53 46.1v-77.71c0-0.88-0.31-2.11-1.76-3.18q-1.53-1.14-3.91-1.14h-2.05q-2.36 0-3.88 1.14c-1.48 1.07-1.76 2.33-1.76 3.18v88.01c0 2.65 1.2 7.06 9.33 7.06 3.43 0 6.58-1.55 9.39-4.7l29.78-36.83 33.87 39.83c0.85 0.88 2.21 1.29 4.19 1.29h2.24c5.1 0 5.64-2.84 5.64-4.03q0.01-1.19-0.98-2.53z"/>
				<path id="&lt;Path&gt;" class="s1" d="m272.92 479.1h-1.83q-2.36 0-3.88 1.14c-1.48 1.07-1.76 2.33-1.76 3.18v90.34c0 0.85 0.31 2.11 1.76 3.19q1.53 1.13 3.91 1.13h1.83q2.12-0.01 3.72-1.1c1.57-1.07 1.92-2.33 1.92-3.22v-90.34c0-0.88-0.35-2.17-1.92-3.21q-1.62-1.1-3.75-1.11z"/>
				<path id="&lt;Path&gt;" class="s1" d="m547.35 479.1h-2.05q-2.37 0-3.88 1.14c-1.48 1.07-1.76 2.33-1.76 3.18v58.74c0 5.04-1.23 9.42-3.63 13.01-2.39 3.63-5.54 6.3-9.32 8.01-7.25 3.27-14.72 5.01-22.16 5.2h-1.79c-7.75-0.19-15.29-1.9-22.41-5.08-3.9-1.76-7.12-4.5-9.51-8.13-2.4-3.59-3.63-7.97-3.63-13.01v-58.74c0-0.85-0.31-2.11-1.76-3.18q-1.53-1.14-3.91-1.14h-2.05q-2.36 0-3.87 1.14c-1.48 1.07-1.77 2.33-1.77 3.18v58.74c0 6.87 1.7 12.89 5.04 17.93 3.34 5.01 7.79 8.82 13.21 11.31 9.95 4.54 20.1 6.87 30.18 6.87h2.46c10.12 0 20.14-2.3 29.78-6.87 5.39-2.49 9.86-6.27 13.27-11.28 3.43-5.04 5.16-11.06 5.16-17.93v-58.74c0-0.88-0.34-2.17-1.92-3.21-1.01-0.76-2.27-1.14-3.68-1.14z"/>
				<path id="&lt;Path&gt;" class="s1" d="m805.48 568.22h-66.45v-84.8c0-0.88-0.35-2.17-1.93-3.21q-1.61-1.1-3.75-1.11h-2.04c-1.42 0-2.68 0.38-3.72 1.08-1.61 1.07-1.92 2.33-1.92 3.24v87.19c0 3.41 1.73 7.47 9.92 7.47h69.89c1.42 0 2.68-0.38 3.69-1.13 1.48-1.08 1.76-2.34 1.76-3.19v-1.23c0-1.29-0.53-4.31-5.45-4.31z"/>
				<path id="&lt;Path&gt;" class="s1" d="m998.08 480.21q-1.62-1.1-3.75-1.11h-1.83q-2.36 0-3.88 1.14c-1.48 1.07-1.76 2.33-1.76 3.18v90.34c0 0.85 0.32 2.11 1.76 3.19q1.53 1.13 3.91 1.13h1.83q2.12-0.01 3.72-1.1c1.57-1.07 1.92-2.33 1.92-3.22v-90.34c0-0.88-0.35-2.17-1.92-3.21z"/>
			</g>
		</g>
		<path id="&lt;Compound Path&gt;" fill-rule="evenodd" class="s1" d="m688.57 188.45c0 19.1-2.87 37.91-8.52 55.99-24.67 79.22-97.03 132.44-180.05 132.44-83.02 0-155.38-53.22-180.05-132.44-5.65-18.08-8.52-36.95-8.52-56.02 0-50.42 19.78-97.84 55.72-133.52l0.38-0.35c19.28-19.02 42.91-33.96 68.38-43.16q0.15-0.1 0.35-0.13c17.86-6.43 36.44-10.11 55.28-10.94 1.07-0.06 2.12-0.06 3.19-0.09l2.27-0.06q0.57-0.04 1.13-0.03l0.7-0.03q0.57-0.04 1.14-0.03c13.63 0 27.35 1.48 40.8 4.47q0.08-0.01 0.16 0.03 0.03 0 0.06 0c7.86 1.74 16 4.16 24.21 7.18q0.18 0.01 0.32 0.1c17.51 6.53 33.79 15.47 48.43 26.6 0.09 0.06 0.19 0.16 0.25 0.22 0.06 0.03 0.16 0.06 0.22 0.12 7.83 6.02 15.3 12.7 22.18 19.95q0.14 0.14 0.22 0.32 0.15 0.08 0.29 0.22c33.16 35.13 51.43 80.98 51.46 129.16zm-50.8-94.98c7.13 20.54 10.07 41.66 8.74 62.71-2.27 36.11-15.05 64.28-39.06 86.21-16.6 15.17-37.08 25.12-60.9 29.66-10.85 2.05-21.62 1.8-34.43 0.82l-22.85-1.79 21.27 8.53c10.91 4.35 20.1 6.88 28.87 7.95 24.39 3.02 46.76-1.68 66.58-13.9 38.56-23.76 66.3-72.54 69.11-121.41-5.93-28.68-19.09-55.66-38.12-78.31 0.26 4.88 0.35 9.76-0.03 11.81-0.57 3.06 0.16 5.74 0.82 7.72zm-25.16-43.51c-1.99 13.87-8.74 26.76-18.74 35.61-10.16 9.02-22.44 13.08-35.6 11.82-0.09 0-5.29-0.51-7.76-0.72l4.61 6.27c5.58 7.65 9.34 13.82 12.11 20.03 1.81 3.98 5.46 3.85 7.42 3.79 20.64-0.26 37.21-8.92 49.35-25.66 3.88-5.35 6.54-17.61 8.87-28.45l0.61-2.77q-9.67-10.84-20.87-19.92zm-240.02 216.65c8.05-14.71 21.33-22.78 39.47-24.04 13.38-0.88 27.07 1.83 43.23 8.64 13.73 5.8 30.27 12.13 48.69 15.16 24.68 4.03 48.63-0.07 71.19-12.17 35.02-18.75 56.01-48.71 62.44-88.99 2.72-16.88 2.18-34.85-1.51-53.34-0.19-1.04-0.57-2.94-2.34-4.54l-3.12-2.86-2.21 3.59c-2.94 4.7-6.66 9.11-11.4 13.49-3.09 2.83-2.52 6.43-2.24 8.35 3.6 24.14-0.18 46.92-11.23 67.62-14.93 28.01-38.75 44.62-70.72 49.38-17.2 2.55-33.39-1.46-52.35-8.26-6.09-2.18-12.24-4.63-18.75-7.22l-2.15-0.85c-4.73-1.89-10.12-4-15.33-5.92-18.43-6.75-35.15-7.98-51.09-3.69-24.04 6.46-41.81 26.72-45.25 51.58-0.09 0.7-0.18 1.49-0.31 2.24l-0.32 2.07v0.01l-0.25 1.65q-0.01 0.03-0.01 0.05c-0.1 0.62-0.21 1.31-0.3 1.96q1.29 2.16 2.71 4.35 1.74 2.69 3.53 5.29c0.55 0.79 1.08 1.52 1.62 2.27l0.47 0.67q2.14 2.94 4.42 5.83l1.51 1.95c3.51 4.29 7.2 8.45 11.05 12.35-7.26-14.66-7.26-32.24 0.55-46.62zm158.01-253.21c-2.8 2.33-5.08 4.38-6.28 5.61-13.13 13.46-14.76 30-4.57 45.31 7.41 11.15 19.5 18.75 33.17 20.86 13.25 2.08 26.63-1.35 36.7-9.45 8.14-6.52 15.02-15.88 20.41-27.85-3.92-3.06-7.92-5.93-12.06-8.64-3.98 7.28-12.4 12.63-21.36 13.42-3.82 0.38-7.45 0.19-10.79-0.5-7.19-1.42-12.75-4.98-16.06-10.33-3.73-6-3.91-13.25-0.48-18.88q1.61-2.65 4.49-4.73-11.23-3.54-22.72-5.57c-0.07 0.28-0.22 0.57-0.45 0.75zm24.55 19.1c1.3 4 4.65 7.15 9.44 8.85 8.3 3.28 17.64 2.93 25.62-0.88q2.64-1.28 4.95-2.99c-11.57-7.31-23.98-13.3-36.98-17.77-0.28 0.37-0.53 0.69-0.75 1.04-3.41 4.94-3.09 9.07-2.28 11.75zm-234.06 156.03c0 12.23 1.26 24.4 3.68 36.33l0.05-0.09c4.43-17.64 17.62-33.77 34.7-42.25 14.42-7.22 31.43-9.68 49.58-7.06 8.26 1.16 16.12 4.13 23.73 6.96 8.11 3.03 16.18 6.08 24.83 7.22 14.57 1.89 25.21-1.04 33.41-9.23 8.49-8.45 10.35-20.77 4.92-32.14-5.17-10.85-13.73-18.29-22.02-24.96-4.36-3.54-9.09-7.1-12.53-9.68l-1.54-1.17c-6.94-5.2-14.8-11.09-21.78-17.3-14.92-13.36-22.36-27.92-23.47-45.85l-1.04-17.15c-0.85 0.48-1.67 1.01-2.53 1.52 0.47 0.35 0.73 0.92 0.57 1.48l-3.85 13.4c-5.9 20.54-2.97 38.09 8.99 53.69 8.21 10.71 18.87 18.46 29.19 25.93l3.88 2.81c6.34 4.56 12.93 9.32 18.42 15.15 2.97 3.12 4.49 5.8 5.02 8.7 0.64 3.56-0.22 7.06-2.42 9.86-2.44 3.06-6.29 4.92-10.55 5.14-7.07 0.32-13.28-2.3-20.07-5.63-9.78-4.83-20.48-9.58-32.28-11.82-25.65-4.89-56.08 2.11-75.7 17.36-1.72 1.33-4.79 3.81-7.95 6.53-0.97 0.89-2.07 2.02-2.96 3.21q-0.28 4.53-0.28 9.04zm9.58-57.62c-4.82 14.09-7.83 28.82-8.94 43.8l2.67-2.94q0.1-0.11 0.2-0.22l0.14-0.16c13.71-14.83 35.45-25.43 50.04-28.08 5.96-1.07 11.93-1.6 17.77-1.6 16.75 0 34.04 4.38 52.79 13.42l1.38 0.69c2.34 1.2 4.99 2.53 8.43 2.94 3.5 0.43 5.14-1.49 5.58-3.41 0.35-1.57-0.22-3.09-1.67-4.69-3.5-3.75-7.42-6.59-11.49-9.43-10.98-7.59-20.06-14.05-28.65-21.93-12.42-11.41-19.56-22.62-22.46-35.29-3.73-16.32-0.95-31.22 8.29-44.36 0.98-1.42 2.05-2.72 3.09-4-14.38 8.69-27.58 19.22-39.09 31.63 0.59 6.31 1.6 12.14 3.09 17.84 0.92 3.6 2.91 7.32 4.83 10.88 3.22 5.95 6.47 12 5.14 17.86-1.79 8.01-11.48 8.1-19.27 8.2l-3.44 0.06c-2.52 0.09-5.46 0.28-7.92 1.01-7.42 2.14-13.97 4.63-20.13 7.65q-0.19 0.09-0.38 0.13zm13.2 144.48c-1.99-16.13 3.91-32.24 16.75-45.69 15.09-15.76 34.62-22.31 59.77-20.16 14.27 1.32 27.64 5.86 37.71 9.67 13.98 5.33 27.77 7.79 42.35 7.47 30.96-0.72 58.79-24.99 63.36-55.27 3.48-22.88-2.71-44.06-18.87-64.76-8.85-11.34-19.8-20.57-29.22-31.39-5.05-5.8-10.22-12.03-13-19.44-3.66-9.86-1.96-19.04 5.24-27.92 4.58-5.65 11.89-11.63 19.44-15.92q-13.58-2.12-27.36-2.11c-4.83 0-9.84 0.22-15.33 0.7-1.3 1.16-2.79 2.51-4.17 4.06-11.04 12.1-13.13 26.43-6.47 43.74 3.88 10.12 10.07 19.38 18.84 28.27 3.41 3.46 6.94 6.86 10.7 10.49l2.23 2.11c3.98 3.84 8.3 8 12.44 12.19 11.61 11.88 18.52 23.13 21.77 35.39 3.94 14.94 1.64 29.97-6.56 42.35-8.24 12.45-21.21 20.52-36.58 22.78-2.11 0.32-4.19 0.48-6.34 0.51h-0.03c-0.69 0-1.29-0.51-1.39-1.2-0.1-0.69 0.35-1.39 1.01-1.57 15.24-4.41 25.75-11.25 33.04-21.46 11.46-16.1 11.46-37.62 0.03-56.21-7.22-11.76-17.29-20.77-27.04-29.5l-0.95-0.85c-21.27-19.03-45.37-40.61-35.81-72.35 2.4-7.9 5.11-12.41 10.76-16.89-14.14 2.36-27.89 6.43-40.96 12.07-1.77 3.84-3.03 7.47-3.82 11.12-3 13.68 0.38 26.88 10.26 40.34 9.37 12.79 22 22.21 33.13 30.56l3.19 2.4c9.88 7.31 20.07 14.9 27.64 24.92 6.09 8.1 9.44 15.44 10.51 23.1 1.89 13.52-2.62 24.42-13.41 32.36-10.7 7.88-24.37 10.94-38.44 8.48-8.01-1.39-15.77-4.29-23.29-7.12-6.59-2.5-13.38-5.04-20.35-6.56-18.9-4.09-39.41-0.78-56.3 9.17-13.24 7.82-24.01 19.38-31.07 33.43q-0.03 0.05-0.06 0.09c-0.45 0.92-0.92 1.96-1.28 2.96q1.35 5.68 3.07 11.26l0.13 0.41c0.75 2.43 1.51 4.57 2.26 6.68q0.76 2.07 1.52 4.1c0.69 1.82 1.39 3.65 2.15 5.45 1.32 3.18 2.61 6.05 3.94 8.72q0.58 1.19 1.2 2.37l0.56 1.07c0.97 1.92 1.98 3.81 3.1 5.58zm-11.4-149.53q3.96-3.21 8.87-5.76c2.48-1.33 5.8-2.3 8.99-3.28 3.06-0.94 5.84-1.8 7.89-2.81 1.58-0.78 2.88-1.19 4.14-1.6 3.88-1.23 6.37-2.05 5.58-7.66-0.32-2.14-0.91-4.88-1.7-8.54-1.55-6.96-3.41-15.59-3-21.26q0.08-0.81 0.16-1.61c-13.35 15.75-23.77 33.52-30.93 52.52zm242.45 39.53c-2.08 24.17-13.29 42.79-33.23 55.4-2.32 1.44-4.85 2.8-7.47 4-7.76 3.56-15.81 5.54-22.63 6.99l-18.17 3.88 18.33 2.99c18.15 2.93 35.22-0.16 50.68-9.05 16.35-9.39 28.31-23.12 36.55-41.96 1.16-2.72 2.26-5.52 3.27-8.36 0.03-0.06 0.03-0.09 0.06-0.12l0.06-0.1c5.05-14.34 6.7-27.89 4.9-41.34l-0.03-0.54c-0.04-0.29-0.04-0.6-0.1-0.98-0.1-0.53-0.16-0.85-0.29-1.2q-0.09-0.15-0.19-0.34c-0.34-0.86-0.85-1.42-1.57-1.87-1.36-0.81-2.87-0.81-4.67-0.06-6 2.59-12.76 4.16-20.68 4.8q-2.8 0.24-4.32 2.05-1.48 1.85-1.17 4.88c0.69 6.17 1.29 13.55 0.67 20.93zm-140.68 189.19c-7.36-5.26-13.7-11.95-19.22-20.14-13.16-19.6-12.72-46.39 1.04-65.17 2.55-3.46 5.83-6.39 10-9.76l5.33-4.35-6.66-1.73c-13.37-3.5-27.41 0.28-37.48 10.08-11.24 10.9-15.72 26.97-11.99 42.98 1.23 5.2 3 10.17 5.33 14.84q0.02 0.05 0.03 0.09 1.84 1.66 3.73 3.25c3.91 3.34 8.08 6.56 12.33 9.58 4.49 3.15 8.84 5.95 13.32 8.57 7.83 4.57 15.97 8.54 24.24 11.76zm29.81 8.88l-9.97-10.65c-11.01-11.78-16.32-27.47-14.49-43.13 1.74-15 9.94-28.11 23.1-36.87l5.53-3.69-13.54-5.38c-2.68-1.07-5.3-2.11-7.95-3.19-3.35-1.35-5.49-2.17-7.51-2.17-2.96 0-5.01 1.69-8.68 5.29-15.55 15.18-20.57 40.74-12.15 62.1 5.94 15 16.29 25.69 31.69 32.65l8.55 3.87c1.76 0.41 3.56 0.82 5.42 1.17zm57.65 2.32c-6.75-1.1-13.22-3.31-19.56-6.67-10.98-5.84-17.86-13.68-21.02-23.92-3.31-10.84-1.07-20.33 6.88-29.06 4.29-4.69 8.77-8.25 13.76-10.96 5.43-2.56 10.63-3.78 13.88-4.35-13.41-3.18-29.6-12.1-29.76-12.19l-0.25-0.1c-7.16-4.38-12.46-1.45-16.31 1.57-17.45 13.68-22.82 33.13-14.74 53.29 5.21 12.96 13.45 23.64 25.22 32.62l0.95 0.1q0.76 0.09 1.51 0.18c0.06-0.03 0.16-0.03 0.22-0.03 0.03 0 0.1 0 0.13 0 13.44 1.29 26.1 1.1 39.09-0.48zm119.73-112.32l-0.45 0.4c-6.49 8.86-19.81 18.72-27.2 23.82-1.35 15.2-11.89 26.57-17.06 32.09-0.48 0.44-0.86 0.85-1.33 1.35-0.44 0.45-0.72 0.76-1.07 1.04-17.08 14.85-36.23 22.44-62.14 24.62-10.5 0.82-22.33-0.92-32.56-2.81-0.69-0.13-1.2-0.79-1.14-1.51 0.06-0.73 0.66-1.29 1.39-1.29 1.73 0 3.4-0.1 5.05-0.16l5.3-0.19c1.83-0.06 3.69-0.12 5.42-0.22 2.15-0.12 4.17-0.34 6.19-0.56l4.14-0.41c1.67-0.13 3.37-0.29 4.98-0.5 2.02-0.26 3.92-0.61 5.85-0.98l3.85-0.67q2.15-0.32 4.19-0.75c1.87-0.41 3.61-0.88 5.34-1.39l1.8-0.5c0.69-0.19 1.36-0.35 2.05-0.54 1.14-0.28 2.28-0.56 3.35-0.94 1.92-0.63 3.69-1.36 5.45-2.08l1.26-0.53c0.6-0.22 1.16-0.45 1.76-0.67q1.38-0.51 2.66-1.07c1.86-0.85 3.56-1.83 5.36-2.87l1.04-0.59q0.71-0.43 1.46-0.8 1-0.51 1.92-1.07c2.37-1.51 4.51-3.21 6.53-4.82 0.32-0.25 0.67-0.5 0.98-0.72q0.52-0.34 0.98-0.73c2.63-2.23 5.05-4.66 7.2-7.21l0.75-0.86c0.44-0.46 0.88-0.94 1.26-1.44 2.59-3.31 4.61-6.36 6.09-9.42l2.27-4.64-29.16 10.94c-6.94 1.79-13.09 2.87-18.93 3.27-5.08 0.38-10.53 0.31-14.2 0.25l-4.41-0.03c-3.09 0-7.13 0.03-11.14 0.38-14.14 1.14-24.93 6.97-32.13 17.3q-1.09 1.62-1.86 3.41-0.13 0.29-0.22 0.63l-0.19 0.6c-0.31 0.94-0.59 1.67-0.75 2.42-0.07 0.32-0.1 0.67-0.13 0.98l-0.06 0.64c-0.12 0.94-0.22 1.6-0.22 2.3q0.01 0.59 0.06 1.19l0.06 1.33q-0.01 0.58 0.06 1.14l-0.09 0.98c0.18 0.19 0.31 0.44 0.37 0.69 2.08 9.86 10.26 18.71 19.41 21.08 17.48 4.51 36.44 4.94 54.81 1.26 3.09-1.2 6.09-2.5 8.93-3.78q0.14-0.11 0.29-0.16c15.27-7.06 29.5-16.26 42.31-27.35 4.07-3.53 8.08-7.34 11.96-11.37l0.88-0.92c0.76-0.78 1.49-1.53 2.21-2.32 5.28-14 8.34-30.19 8.87-46.89zm37.11-55.11l-1.42-14.78-7.79 20.7c-5.43 12.73-13.44 25.3-16.63 30.13l-0.16 0.44c-1.92 5.86-2.08 12.1-2.21 17.58-0.38 16.14-3.35 31.77-8.36 44.53q1.89-2.51 3.69-5.01l1.64-2.33q3.09-4.44 5.74-8.83c0.25-0.37 0.48-0.82 0.73-1.23l0.63-1.07q2-3.4 3.85-6.9 1-1.88 1.96-3.81c1.04-2.05 1.98-4.13 2.93-6.21q1.15-2.42 2.15-4.89c1.05-2.49 2.06-5.04 2.97-7.59q0.93-2.56 1.76-5.17c0.51-1.62 1.01-3.19 1.49-4.8l0.13-0.4c0.53-1.8 1.04-3.54 1.51-5.33 0.19-0.75 0.35-1.55 0.54-2.3l0.28-1.29c0.94-4.03 1.77-8.06 2.43-12l0.16-0.91q0.19-1.1 0.34-2.18c0.82-5.46 1.36-10.97 1.64-16.35z"/>
	</g>
</svg>