<?xml version="1.0" encoding="utf-8"?>
<!-- Generator: Adobe Illustrator 28.2.0, SVG Export Plug-In . SVG Version: 6.00 Build 0)  -->
<svg version="1.1" xmlns="http://www.w3.org/2000/svg" xmlns:xlink="http://www.w3.org/1999/xlink" x="0px" y="0px"
	 viewBox="0 0 500 500" style="enable-background:new 0 0 500 500;" xml:space="preserve">
<style type="text/css">
	.st0{fill:#2F2F2B;}
	.st1{fill:#FFFFFF;}
</style>
<g id="Layer_1">
	<g>
		<g>
			<path class="st0" d="M132.25-153.34l11.05-13.32c0.24-0.3,0.34-0.6,0.3-0.91s-0.21-0.58-0.54-0.82
				c-0.34-0.23-0.76-0.35-1.25-0.35h-0.71c-0.58,0-0.99,0.13-1.29,0.44l-9.18,10.95l-11.91,14.63v-24.66c0-0.28-0.1-0.67-0.56-1.01
				c-0.32-0.24-0.74-0.36-1.24-0.36h-0.65c-0.5,0-0.91,0.12-1.23,0.36c-0.47,0.34-0.56,0.74-0.56,1.01v27.93
				c0,0.84,0.38,2.24,2.96,2.24c1.09,0,2.09-0.49,2.98-1.49l9.45-11.69l10.75,12.64c0.27,0.28,0.7,0.41,1.33,0.41h0.71
				c1.62,0,1.79-0.9,1.79-1.28c0-0.25-0.1-0.52-0.31-0.8L132.25-153.34z"/>
			<path class="st0" d="M201.09-168.74h-0.58c-0.5,0-0.91,0.12-1.23,0.36c-0.47,0.34-0.56,0.74-0.56,1.01v28.67
				c0,0.27,0.1,0.67,0.56,1.01c0.32,0.24,0.74,0.36,1.24,0.36h0.58c0.45,0,0.84-0.12,1.18-0.35c0.5-0.34,0.61-0.74,0.61-1.02v-28.67
				c0-0.28-0.11-0.69-0.61-1.02C201.94-168.62,201.54-168.74,201.09-168.74z"/>
			<path class="st0" d="M288.18-168.74h-0.65c-0.5,0-0.91,0.12-1.23,0.36c-0.47,0.34-0.56,0.74-0.56,1.01v18.64
				c0,1.6-0.39,2.99-1.15,4.13c-0.76,1.15-1.76,2-2.96,2.54c-2.3,1.04-4.67,1.59-7.03,1.65h-0.57c-2.46-0.06-4.85-0.6-7.11-1.61
				c-1.24-0.56-2.26-1.43-3.02-2.58c-0.76-1.14-1.15-2.53-1.15-4.13v-18.64c0-0.27-0.1-0.67-0.56-1.01
				c-0.32-0.24-0.74-0.36-1.24-0.36h-0.65c-0.5,0-0.91,0.12-1.23,0.36c-0.47,0.34-0.56,0.74-0.56,1.01v18.64
				c0,2.18,0.54,4.09,1.6,5.69c1.06,1.59,2.47,2.8,4.19,3.59c3.16,1.44,6.38,2.18,9.58,2.18h0.78c3.21,0,6.39-0.73,9.45-2.18
				c1.71-0.79,3.13-1.99,4.21-3.58c1.09-1.6,1.64-3.51,1.64-5.69v-18.64c0-0.28-0.11-0.69-0.61-1.02
				C289.03-168.62,288.63-168.74,288.18-168.74z"/>
			<path class="st0" d="M370.1-140.46h-21.09v-26.91c0-0.28-0.11-0.69-0.61-1.02c-0.34-0.23-0.74-0.35-1.19-0.35h-0.65
				c-0.45,0-0.85,0.12-1.18,0.34c-0.51,0.34-0.61,0.74-0.61,1.03v27.67c0,1.08,0.55,2.37,3.15,2.37h22.18
				c0.45,0,0.85-0.12,1.17-0.36c0.47-0.34,0.56-0.74,0.56-1.01v-0.39C371.83-139.5,371.66-140.46,370.1-140.46z"/>
			<path class="st0" d="M431.22-168.39c-0.34-0.23-0.74-0.35-1.19-0.35h-0.58c-0.5,0-0.91,0.12-1.23,0.36
				c-0.47,0.34-0.56,0.74-0.56,1.01v28.67c0,0.27,0.1,0.67,0.56,1.01c0.32,0.24,0.74,0.36,1.24,0.36h0.58
				c0.45,0,0.84-0.12,1.18-0.35c0.5-0.34,0.61-0.74,0.61-1.02v-28.67C431.83-167.65,431.72-168.06,431.22-168.39z"/>
		</g>
	</g>
	<path class="st1" d="M431.71,78.57c-0.13-0.13-0.25-0.21-0.38-0.29c-0.08-0.17-0.17-0.29-0.29-0.42
		c-9.13-9.62-19.05-18.48-29.44-26.47c-0.08-0.08-0.21-0.13-0.29-0.17c-0.08-0.08-0.21-0.21-0.33-0.29
		c-19.43-14.76-41.03-26.63-64.27-35.29c-0.13-0.08-0.25-0.13-0.42-0.13c-10.89-4.01-21.69-7.23-32.12-9.53c-0.04,0-0.04,0-0.08,0
		c-0.08-0.04-0.13-0.04-0.21-0.04C286.03,1.97,267.82,0,249.73,0c-0.5,0-1,0-1.51,0.04l-0.92,0.04c-0.5,0-1,0-1.51,0.04l-3.01,0.08
		c-1.42,0.04-2.81,0.04-4.23,0.13c-25,1.09-49.66,5.98-73.36,14.51c-0.17,0.04-0.33,0.08-0.46,0.17
		c-33.79,12.21-65.15,32.03-90.74,57.28l-0.5,0.46C25.8,120.09-0.45,183.02-0.45,249.92c0,25.3,3.81,50.34,11.31,74.34
		C43.59,429.38,139.61,500,249.77,500c110.17,0,206.18-70.62,238.92-175.74c7.5-24,11.31-48.96,11.31-74.3
		C499.96,186.03,475.71,125.19,431.71,78.57z M431.5,113.69c0.5-2.72,0.38-9.2,0.04-15.68c25.25,30.06,42.71,65.86,50.58,103.91
		c-3.73,64.85-40.53,129.58-91.7,161.11c-26.3,16.22-55.98,22.45-88.35,18.44c-11.64-1.42-23.83-4.77-38.31-10.54l-28.22-11.33
		l30.32,2.38c17,1.3,31.28,1.63,45.68-1.09c31.61-6.02,58.79-19.23,80.81-39.35c31.86-29.1,48.82-66.48,51.84-114.4
		c1.76-27.93-2.14-55.95-11.6-83.21C431.71,121.3,430.74,117.75,431.5,113.69z M426.89,92.62l-0.8,3.68
		c-3.1,14.38-6.62,30.65-11.77,37.76c-16.12,22.2-38.1,33.7-65.49,34.04c-2.6,0.08-7.45,0.25-9.84-5.02
		c-3.68-8.24-8.67-16.43-16.08-26.59l-6.11-8.32c3.27,0.29,10.17,0.96,10.3,0.96c17.46,1.67,33.75-3.72,47.23-15.68
		c13.27-11.75,22.23-28.85,24.87-47.25C409.1,74.22,418.35,83.04,426.89,92.62z M348.3,191.59c-0.29-2.68,0.25-4.85,1.55-6.48
		c1.34-1.59,3.27-2.51,5.74-2.72c10.51-0.84,19.47-2.93,27.43-6.36c2.39-1,4.4-1,6.2,0.08c0.96,0.59,1.63,1.34,2.09,2.47
		c0.08,0.17,0.17,0.33,0.25,0.46c0.17,0.46,0.25,0.88,0.38,1.59c0.08,0.5,0.08,0.92,0.13,1.3l0.04,0.71
		c2.39,17.85,0.21,35.83-6.49,54.86l-0.08,0.13c-0.04,0.04-0.04,0.08-0.08,0.17c-1.34,3.76-2.81,7.48-4.35,11.08
		c-10.93,25-26.8,43.23-48.49,55.69c-20.52,11.79-43.17,15.89-67.25,12l-24.33-3.97l24.12-5.14c9.04-1.92,19.72-4.56,30.02-9.28
		c3.48-1.59,6.83-3.39,9.92-5.31c26.46-16.73,41.33-41.44,44.09-73.51C350.01,209.57,349.22,199.78,348.3,191.59z M325.98,27.43
		c0.29-0.46,0.63-0.88,1-1.38c17.25,5.94,33.71,13.88,49.07,23.58c-2.05,1.51-4.23,2.84-6.57,3.97c-10.59,5.06-22.99,5.52-34,1.17
		c-6.36-2.26-10.8-6.44-12.52-11.75C321.88,39.47,321.46,33.99,325.98,27.43z M290.97,16.68c10.17,1.8,20.22,4.26,30.15,7.4
		c-2.55,1.84-4.52,3.93-5.95,6.27c-4.56,7.48-4.31,17.1,0.63,25.05c4.4,7.11,11.77,11.83,21.31,13.71
		c4.44,0.92,9.25,1.17,14.32,0.67c11.89-1.05,23.07-8.15,28.35-17.81c5.49,3.6,10.8,7.4,16,11.46
		c-7.16,15.89-16.29,28.31-27.09,36.96c-13.36,10.75-31.11,15.3-48.7,12.54c-18.13-2.8-34.17-12.88-44.01-27.68
		c-13.52-20.32-11.35-42.27,6.07-60.13c1.59-1.63,4.61-4.35,8.33-7.44C290.68,17.44,290.89,17.06,290.97,16.68z M68.51,97.22
		c-0.08,0.71-0.13,1.42-0.21,2.13c-0.54,7.53,1.93,18.98,3.98,28.22c1.05,4.85,1.84,8.49,2.26,11.33c1.05,7.44-2.26,8.53-7.41,10.16
		c-1.67,0.54-3.39,1.09-5.49,2.13c-2.72,1.34-6.41,2.47-10.47,3.72c-4.23,1.3-8.63,2.59-11.93,4.35c-4.35,2.26-8.25,4.81-11.77,7.65
		C36.98,141.7,50.8,118.12,68.51,97.22z M25.59,173.44c8.17-4.01,16.87-7.32,26.71-10.16c3.27-0.96,7.16-1.21,10.51-1.34l4.56-0.08
		c10.34-0.13,23.2-0.25,25.58-10.87c1.76-7.78-2.55-15.81-6.83-23.71c-2.55-4.72-5.19-9.66-6.41-14.43
		c-1.97-7.57-3.31-15.3-4.1-23.67c15.28-16.47,32.79-30.44,51.88-41.98c-1.38,1.71-2.81,3.43-4.1,5.31
		c-12.27,17.44-15.95,37.21-11.01,58.87c3.85,16.81,13.32,31.69,29.81,46.83c11.39,10.45,23.45,19.02,38.02,29.1
		c5.4,3.76,10.59,7.53,15.24,12.5c1.93,2.13,2.68,4.14,2.22,6.23c-0.59,2.55-2.76,5.1-7.41,4.52c-4.56-0.54-8.08-2.3-11.18-3.89
		l-1.84-0.92c-24.87-12-47.82-17.81-70.05-17.81c-7.75,0-15.66,0.71-23.57,2.13c-19.37,3.51-48.21,17.57-66.41,37.26l0,0l-0.18,0.2
		c-0.09,0.1-0.18,0.2-0.27,0.3l-3.54,3.9c1.48-19.88,5.47-39.42,11.86-58.12C25.25,173.57,25.42,173.52,25.59,173.44z M12.75,238.07
		c1.18-1.58,2.64-3.08,3.92-4.26c4.19-3.61,8.27-6.9,10.55-8.66c26.04-20.24,66.41-29.52,100.45-23.04
		c15.66,2.97,29.85,9.28,42.84,15.68c9,4.43,17.25,7.9,26.63,7.48c5.65-0.29,10.76-2.76,13.99-6.82c2.93-3.72,4.06-8.36,3.22-13.09
		c-0.71-3.85-2.72-7.4-6.66-11.54c-7.29-7.74-16.04-14.05-24.45-20.11l-5.15-3.72c-13.69-9.91-27.84-20.2-38.73-34.41
		c-15.87-20.7-19.76-43.99-11.93-71.25l5.11-17.77c0.21-0.75-0.13-1.51-0.75-1.97c1.13-0.67,2.22-1.38,3.35-2.01l1.38,22.75
		c1.47,23.79,11.35,43.11,31.15,60.84c9.25,8.24,19.68,16.06,28.89,22.96l2.05,1.55c4.56,3.43,10.84,8.15,16.62,12.84
		c11.01,8.86,22.36,18.73,29.23,33.12c7.2,15.09,4.73,31.44-6.53,42.65c-10.89,10.87-25,14.76-44.34,12.25
		c-11.47-1.51-22.19-5.56-32.95-9.58c-10.09-3.76-20.52-7.69-31.49-9.24c-24.08-3.47-46.65-0.21-65.78,9.37
		c-22.67,11.26-40.17,32.66-46.05,56.07l-0.07,0.11c-3.21-15.82-4.88-31.97-4.88-48.2C12.36,246.08,12.51,242.07,12.75,238.07z
		 M38.49,357.92l-0.75-1.42c-0.54-1.05-1.09-2.09-1.59-3.14c-1.76-3.55-3.48-7.36-5.23-11.58c-1-2.38-1.93-4.81-2.85-7.23
		c-0.67-1.8-1.34-3.6-2.01-5.44c-1-2.8-2.01-5.64-3.01-8.86l-0.17-0.54c-1.52-4.93-2.88-9.92-4.07-14.94
		c0.48-1.33,1.1-2.71,1.7-3.93c0.02-0.04,0.05-0.07,0.07-0.12c9.38-18.65,23.66-33.99,41.24-44.36c22.4-13.21,49.62-17.6,74.7-12.17
		c9.25,2.01,18.26,5.39,27.01,8.7c9.97,3.76,20.27,7.61,30.9,9.45c18.67,3.26,36.81-0.79,51-11.25c14.32-10.54,20.31-25,17.8-42.94
		c-1.42-10.16-5.86-19.9-13.94-30.65c-10.05-13.3-23.57-23.37-36.68-33.07l-4.23-3.18c-14.78-11.08-31.53-23.58-43.97-40.56
		c-13.11-17.85-17.59-35.37-13.61-53.52c1.05-4.85,2.72-9.66,5.07-14.76c17.34-7.48,35.59-12.88,54.35-16.01
		c-7.5,5.94-11.1,11.92-14.28,22.41c-12.69,42.11,19.3,70.75,47.52,96l1.26,1.13c12.94,11.58,26.3,23.54,35.88,39.14
		c15.16,24.67,15.16,53.23-0.04,74.59c-9.67,13.55-23.62,22.62-43.84,28.47c-0.88,0.25-1.47,1.17-1.34,2.09
		c0.13,0.92,0.92,1.59,1.84,1.59h0.04c2.85-0.04,5.61-0.25,8.42-0.67c20.39-3.01,37.6-13.71,48.53-30.23
		c10.89-16.43,13.94-36.38,8.71-56.2c-4.31-16.27-13.48-31.19-28.89-46.96c-5.49-5.56-11.22-11.08-16.5-16.18l-2.97-2.8
		c-4.98-4.81-9.67-9.32-14.19-13.92c-11.64-11.79-19.85-24.08-25-37.51c-8.84-22.96-6.07-41.98,8.58-58.04
		c1.84-2.05,3.81-3.85,5.53-5.39c7.29-0.63,13.94-0.92,20.35-0.92c12.18,0,24.29,0.92,36.3,2.8c-10.01,5.69-19.72,13.63-25.79,21.12
		c-9.55,11.79-11.81,23.96-6.95,37.05c3.68,9.83,10.55,18.1,17.25,25.8c12.49,14.35,27.03,26.6,38.77,41.65
		c21.44,27.47,29.65,55.57,25.04,85.93c-6.07,40.18-43,72.38-84.08,73.34c-19.34,0.42-37.64-2.84-56.19-9.91
		c-13.36-5.06-31.11-11.08-50.04-12.84c-33.37-2.84-59.29,5.85-79.31,26.76c-17.04,17.85-24.87,39.22-22.23,60.63
		C41.12,362.98,39.78,360.47,38.49,357.92z M79.98,415.54c-5.11-5.18-10.01-10.7-14.66-16.39l-2.01-2.59
		c-2.01-2.55-3.98-5.14-5.86-7.74l-0.63-0.88c-0.71-1-1.42-1.97-2.14-3.01c-1.59-2.3-3.14-4.64-4.69-7.02
		c-1.25-1.94-2.45-3.87-3.59-5.78c0.12-0.86,0.26-1.78,0.39-2.6c0-0.02,0.02-0.04,0.02-0.07l0.33-2.19c0,0,0-0.01,0-0.01h0
		l0.42-2.74c0.17-1,0.29-2.05,0.42-2.97c4.56-32.99,28.14-59.88,60.04-68.45c21.15-5.69,43.34-4.06,67.79,4.89
		c6.91,2.55,14.07,5.35,20.35,7.86l2.85,1.13c8.63,3.43,16.79,6.69,24.87,9.58c25.17,9.03,46.65,14.34,69.47,10.96
		c42.42-6.31,74.03-28.35,93.84-65.52c14.66-27.47,19.68-57.7,14.91-89.73c-0.38-2.55-1.13-7.32,2.97-11.08
		c6.28-5.81,11.22-11.67,15.12-17.9l2.93-4.77l4.15,3.8c2.34,2.13,2.85,4.64,3.1,6.02c4.9,24.54,5.61,48.38,2.01,70.79
		c-8.54,53.44-36.39,93.2-82.86,118.08c-29.94,16.06-61.72,21.49-94.46,16.14c-24.45-4.01-46.39-12.42-64.61-20.11
		c-21.44-9.03-39.61-12.63-57.36-11.46c-24.08,1.67-41.7,12.38-52.38,31.9C70.35,372.76,70.35,396.09,79.98,415.54z M130.35,454.8
		c-5.95-3.47-11.72-7.19-17.67-11.37c-5.65-4.01-11.18-8.28-16.37-12.71c-1.67-1.42-3.31-2.84-4.94-4.31c0-0.04-0.04-0.08-0.04-0.13
		c-3.1-6.19-5.44-12.79-7.08-19.69c-4.94-21.24,1-42.57,15.91-57.03c13.36-13,31.99-18.02,49.74-13.38l8.84,2.3l-7.08,5.77
		c-5.53,4.47-9.88,8.36-13.27,12.96c-18.26,24.92-18.84,60.46-1.38,86.47c7.33,10.87,15.74,19.74,25.5,26.72
		C151.54,466.13,140.74,460.86,130.35,454.8z M194.88,480.64l-11.35-5.14c-20.43-9.24-34.17-23.42-42.04-43.32
		c-11.18-28.35-4.52-62.26,16.12-82.41c4.86-4.77,7.58-7.02,11.51-7.02c2.68,0,5.53,1.09,9.97,2.89c3.52,1.42,6.99,2.8,10.55,4.22
		l17.96,7.15l-7.33,4.89c-17.46,11.62-28.35,29.02-30.65,48.92c-2.43,20.78,4.61,41.6,19.22,57.24l13.23,14.13
		C199.61,481.73,197.22,481.18,194.88,480.64z M226.7,485.91c-0.04,0-0.13,0-0.17,0c-0.08,0-0.21,0-0.29,0.04
		c-0.67-0.08-1.34-0.17-2.01-0.25l-1.26-0.13c-15.62-11.92-26.55-26.09-33.46-43.28c-10.72-26.76-3.6-52.56,19.55-70.71
		c5.11-4.01,12.14-7.9,21.65-2.09l0.33,0.13c0.21,0.13,21.69,11.96,39.49,16.18c-4.31,0.75-11.22,2.38-18.42,5.77
		c-6.62,3.6-12.56,8.32-18.26,14.55c-10.55,11.58-13.52,24.17-9.13,38.55c4.19,13.59,13.32,24,27.89,31.74
		c8.42,4.47,17,7.4,25.96,8.86C261.33,487.37,244.54,487.62,226.7,485.91z M436.98,347.3c-0.71,22.16-4.77,43.65-11.77,62.22
		c-0.96,1.05-1.93,2.05-2.93,3.09l-1.17,1.21c-5.15,5.35-10.47,10.41-15.87,15.09c-17,14.72-35.88,26.93-56.15,36.29
		c-0.13,0.04-0.25,0.13-0.38,0.21c-3.77,1.71-7.75,3.43-11.85,5.02c-24.37,4.89-49.53,4.31-72.73-1.67
		c-12.14-3.14-22.99-14.89-25.75-27.97c-0.08-0.33-0.25-0.67-0.5-0.92l0.13-1.3c-0.08-0.5-0.08-1-0.08-1.51l-0.08-1.76
		c-0.04-0.54-0.08-1.05-0.08-1.59c0-0.92,0.13-1.8,0.29-3.05l0.08-0.84c0.04-0.42,0.08-0.88,0.17-1.3c0.21-1,0.59-1.97,1-3.22
		l0.25-0.79c0.08-0.29,0.17-0.59,0.29-0.84c0.67-1.59,1.51-3.09,2.47-4.52c9.55-13.71,23.87-21.45,42.63-22.96
		c5.32-0.46,10.68-0.5,14.78-0.5l5.86,0.04c4.86,0.08,12.1,0.17,18.84-0.33c7.75-0.54,15.91-1.97,25.12-4.35l38.69-14.51l-3.01,6.15
		c-1.97,4.06-4.65,8.11-8.08,12.5c-0.5,0.67-1.09,1.3-1.67,1.92l-1,1.13c-2.85,3.39-6.07,6.61-9.55,9.58
		c-0.42,0.33-0.84,0.67-1.3,0.96c-0.42,0.29-0.88,0.63-1.3,0.96c-2.68,2.13-5.53,4.39-8.67,6.4c-0.8,0.5-1.67,0.96-2.55,1.42
		c-0.67,0.33-1.3,0.67-1.93,1.05l-1.38,0.79c-2.39,1.38-4.65,2.68-7.12,3.81c-1.13,0.5-2.3,0.96-3.52,1.42
		c-0.8,0.29-1.55,0.59-2.34,0.88l-1.67,0.71c-2.34,0.96-4.69,1.92-7.24,2.76c-1.42,0.5-2.93,0.88-4.44,1.25
		c-0.92,0.25-1.8,0.46-2.72,0.71l-2.39,0.67c-2.3,0.67-4.61,1.3-7.08,1.84c-1.8,0.38-3.68,0.71-5.57,1l-5.11,0.88
		c-2.55,0.5-5.07,0.96-7.75,1.3c-2.14,0.29-4.4,0.5-6.62,0.67l-5.49,0.54c-2.68,0.29-5.36,0.59-8.21,0.75
		c-2.3,0.13-4.77,0.21-7.2,0.29l-7.03,0.25c-2.18,0.08-4.4,0.21-6.7,0.21c-0.96,0-1.76,0.75-1.84,1.71
		c-0.08,0.96,0.59,1.84,1.51,2.01c13.57,2.51,29.27,4.81,43.21,3.72c34.38-2.89,59.79-12.96,82.45-32.66
		c0.46-0.38,0.84-0.79,1.42-1.38c0.63-0.67,1.13-1.21,1.76-1.8c6.87-7.32,20.85-22.41,22.65-42.57c9.8-6.77,27.47-19.86,36.09-31.61
		l0.59-0.54L436.98,347.3z M484.51,284.79c-0.13,0.96-0.29,1.92-0.46,2.89l-0.21,1.21c-0.88,5.23-1.97,10.58-3.22,15.93l-0.38,1.71
		c-0.25,1-0.46,2.05-0.71,3.05c-0.63,2.38-1.3,4.68-2.01,7.07l-0.17,0.54c-0.63,2.13-1.3,4.22-1.97,6.36
		c-0.75,2.3-1.51,4.6-2.34,6.86c-1.21,3.39-2.55,6.77-3.94,10.08c-0.88,2.17-1.84,4.35-2.85,6.48c-1.26,2.76-2.51,5.52-3.89,8.24
		c-0.84,1.71-1.72,3.39-2.6,5.06c-1.63,3.09-3.35,6.15-5.11,9.16l-0.84,1.42c-0.33,0.54-0.63,1.13-0.96,1.63
		c-2.34,3.89-4.9,7.78-7.62,11.71l-2.18,3.09c-1.59,2.22-3.22,4.43-4.9,6.65c6.66-16.93,10.59-37.67,11.1-59.08
		c0.17-7.28,0.38-15.55,2.93-23.33l0.21-0.59c4.23-6.4,14.86-23.08,22.07-39.97l10.34-27.47l1.88,19.61
		C486.31,270.24,485.6,277.55,484.51,284.79z"/>
</g>
<g id="Dimensions">
</g>
</svg>
