<?xml version="1.0" encoding="utf-8"?>
<!-- Generator: Adobe Illustrator 28.2.0, SVG Export Plug-In . SVG Version: 6.00 Build 0)  -->
<svg version="1.1" xmlns="http://www.w3.org/2000/svg" xmlns:xlink="http://www.w3.org/1999/xlink" x="0px" y="0px"
	 viewBox="0 0 500 500" style="enable-background:new 0 0 500 500;" xml:space="preserve">
<style type="text/css">
	.st0{fill:#2F2F2B;}
	.st1{fill:#DA7A5A;}
</style>
<g id="Layer_1">
	<rect class="st0" width="500" height="500"/>
	<g>
		<g>
			<path class="st1" d="M179.18,349.33c-4.11-1.67-6.64-2.63-8.76-2.63c-2.94,0-5.06,1.83-9.43,6.11
				c-19.52,19.1-25.78,51.21-15.21,78.08c7.44,18.89,20.48,32.33,39.84,41.11l8.65,3.93l-6.48-6.94
				c-14.87-15.91-21.99-37.18-19.54-58.36c2.36-20.35,13.44-38.1,31.24-49.97l3-2.01l-11.07-4.41
				C187.27,352.6,183.25,351.02,179.18,349.33z"/>
			<path class="st1" d="M386.54,186.27c-0.09-1.37-0.26-2.78-1.55-3.56c-0.95-0.58-2.13-0.58-3.61,0.07
				c-8.02,3.47-17.09,5.59-27.73,6.45c-1.71,0.14-2.98,0.72-3.79,1.69c-1.27,1.53-1.04,3.68-0.95,4.37
				c0.92,8.19,1.73,17.9,0.86,27.81c-2.8,32.37-17.76,57.32-44.47,74.2c-12.93,8.18-27.51,12.03-40.05,14.71l-9.81,2.11l9.92,1.62
				c22.85,3.72,44.54-0.18,64.19-11.47c23.68-13.62,40.26-34.66,50.69-64.3c6.48-18.43,8.56-35.77,6.4-53.06L386.54,186.27z"/>
			<path class="st1" d="M322.97,398.54c-6.22,0.44-12.55,0.42-18.68,0.35c-1.85-0.02-3.77-0.02-5.73-0.02
				c-4.63,0-9.52,0.07-14.31,0.48c-17.55,1.43-30.96,8.65-39.82,21.43c-0.95,1.37-1.59,2.82-2.18,4.26l-0.11-0.02
				c0,0-0.21,0.51-0.41,1.02c0,0,0,0,0,0.02c-0.55,1.5-0.85,3.01-1.13,4.55c-0.05,0.32-0.19,0.62-0.23,0.95
				c0.05,0.02,0.11,0.02,0.16,0.04c-0.33,2.7-0.39,5.81,0.79,9.07c0,0,88,3.96,128.56-43.75c0.85-1,1.78-1.89,2.57-2.93
				c2.91-3.67,5.55-7.54,7.65-11.79l-32.14,12.03C339.72,396.36,331.41,397.94,322.97,398.54z"/>
			<path class="st1" d="M250,0C111.54,0-0.7,111.93-0.7,250S111.54,500,250,500s250.7-111.93,250.7-250S388.46,0,250,0z
				 M334.75,24.32l3.91-0.28l-3.14,2.34c-4.6,3.44-9,6.92-12.19,11.86l-0.02,0.02c-3.79,5.52-3.49,10.08-2.55,12.92
				c1.43,4.41,5.25,7.93,10.78,9.9c10.1,3.98,21.44,3.58,31.15-1.07c6.31-3.05,11.54-7.74,15.1-13.6l1.97-3.26l0.14,3.81
				c0.12,3.3-0.39,6.7-1.53,10.11c-3.95,12.55-17.44,22.61-32.07,23.93c-5.27,0.44-10.24,0.19-14.77-0.7
				c-9.99-1.96-17.94-7.05-22.71-14.78c-5.34-8.62-5.57-19.08-0.56-27.29C313.15,30.15,322.56,25.21,334.75,24.32z M189.63,49.81
				c5.9-19.65,23.31-35.68,45.44-41.9c7.84-2.2,14.98-3.14,21.73-2.85l5.5,0.25l-5.13,1.96c-12.44,4.79-22.61,11.65-31.05,20.97
				c-13.6,14.98-16.18,32.72-7.89,54.25c4.95,12.88,12.79,24.63,23.95,35.95c5,5.07,10.15,10.03,15.86,15.52
				c5.36,5.15,11.42,10.98,17.13,16.81c15.45,15.82,24.69,30.85,29.02,47.28c5.34,20.18,2.18,40.54-8.9,57.32
				c-11.12,16.85-28.69,27.81-49.46,30.84c-3.14,0.46-6.24,0.69-9.39,0.69c-6.71,0-13.57-1.06-20.99-3.19l-6.26-1.81l6.5-0.44
				c7.51-0.51,14.17-1.62,20.37-3.42c19.17-5.55,32.35-14.11,41.44-26.92c14.27-20.09,14.26-47.03-0.05-70.34
				c-9.2-14.96-22.17-26.61-34.71-37.87l-0.85-0.76c-13.34-11.98-26.27-23.82-37.73-37.04C189.26,87.91,184.08,68.26,189.63,49.81z
				 M15.03,186.23c6.48-10.63,15.26-18.73,26.82-24.77c6.22-3.26,12.53-6.4,18.4-9.32c7.29-3.61,11.58-6.04,10.48-13.81
				c-1.29-9.22-2.64-22.41-1.83-33.51c0.81-11.08,3.77-20.58,9.02-29.06l2.18-3.54l0.33,4.14c0.18,2.4,0.26,4.37,0.25,6.2
				c-0.12,11.82,1.62,23.61,4.63,35.03c3.24,12.35,16.09,25.2,13.04,38.75c-3.21,14.22-20.99,12.44-32.09,12.85
				c-3.59,0.14-6.94,0.41-9.69,1.2c-14.1,4.05-27.29,9.64-39.63,17.71l-5.04,3.3L15.03,186.23z M20.32,324.43l-1.32,6.15l-0.93-6.22
				c-7.22-48.3,33.83-78.73,64.44-88.17c9.9-3.07,20.18-4.62,30.55-4.62c13.13,0,26.5,2.36,40.88,7.21
				c3.93,1.32,7.88,2.85,11.72,4.32l-0.14,1.18l0.41-1.07c9.23,3.56,18.77,7.24,28.92,8.62c18.01,2.41,31.1-1.16,41.25-11.29
				c10.2-10.18,12.46-25.07,5.89-38.87c-6.5-13.62-17.36-23.1-27.95-31.61c-5.97-4.83-12.21-9.52-18.24-14.04
				c-9.71-7.29-19.52-14.68-28.51-22.71c-19.96-17.85-29.95-37.41-31.44-61.55l-0.67-11l-3.03,10.59
				c-7.44,25.9-3.75,48.02,11.24,67.65c10.38,13.59,24.14,23.58,37.44,33.25l4.83,3.51c8.48,6.13,17.25,12.46,24.56,20.23
				c4.21,4.48,6.43,8.37,7.21,12.69c0.99,5.43-0.32,10.75-3.68,14.98c-3.65,4.6-9.34,7.4-15.65,7.72
				c-10.03,0.53-18.66-3.31-27.45-7.63c-12.55-6.17-26.24-12.28-41.34-15.17c-31.01-5.94-69.92,1.52-96.4,22.11
				c-5.97,4.63-11.22,10.03-16.12,15.14c-2.38,2.48-4.67,5.25-7.22,8.72L5.8,259.6l1.74-6.08c8.92-31.24,46.31-56.16,78.52-62.01
				c30.32-5.5,60-0.53,93.49,15.63l1.76,0.86c3.05,1.53,6.22,3.1,10.15,3.58c3.05,0.37,4.05-1.06,4.33-2.36
				c0.25-1.11-0.26-2.36-1.53-3.74c-4.26-4.62-9.29-8.26-14.5-11.89c-14.47-10.06-26.43-18.55-37.58-28.83
				c-16.58-15.26-26.11-30.31-30.03-47.35c-5.04-22.03-1.27-42.18,11.22-59.93c11.59-16.46,27.29-29.14,46.68-37.69l4.05-1.78
				l-2.68,3.52c-8.99,11.82-14.04,21.94-16.4,32.83c-3.68,17.02,0.53,33.51,12.92,50.41c11.93,16.3,28.21,28.49,42.59,39.28
				l4.14,3.1c13.02,9.71,26.48,19.73,36.49,33.06c8.21,10.91,12.72,20.86,14.18,31.31c2.61,18.7-3.63,33.74-18.52,44.72
				c-16.44,12.12-35.93,15.58-57.94,10.29c-8.19-1.94-16.25-4.95-24.03-7.88l0.12-1.18l-0.41,1.07c-3.56-1.34-7.14-2.66-10.73-3.91
				c-20.95-7.24-39.82-8.81-57.67-4.81c-28.72,6.41-57.64,27.14-70.45,57.11C23.49,312.22,21.71,317.94,20.32,324.43z
				 M478.78,326.72l-3.45,6.85l1.32-7.58c3.63-21.04,4.51-40.53,2.66-59.59l-0.78-8.12l-4.51,12.05c-0.55,1.46-1.11,2.91-1.66,4.35
				c-8.18,19.22-21.02,38.38-21.71,39.38c-2.41,7.33-2.64,14.92-2.8,22.34c-0.62,27.65-7.38,57.99-20.69,78.04
				c-3.86,5.83-8.97,10.96-16.05,16.14l-4.79,3.51l3.15-5.04c13.23-21.18,20.12-52.37,21.04-80.65l0.14-4.53l-7.44,6.87
				c-3.51,3.22-7.19,6.13-10.8,9.16l-8.4,5.67l-3.59,2.18c-1.22,22.01-16.49,37.94-23.36,45.28c-1.06,0.99-1.96,2.11-3.05,3.07
				c-23.26,20.26-49.2,29.53-82.46,32.76c-22.66,1.46-47.87-2.98-47.87-2.98c-0.16,0.33,3.31,7.47,3.77,8.28
				c3.56,6.17,10.24,9.37,16.9,11.08c27.73,7.12,56.91,6.17,84.33-1.89c6.47-1.89,12.81-4.12,19.07-6.61l6.29-2.5l-5.13,4.42
				c-17.51,15.14-38.89,24.56-63.52,28.05c-20.44,2.89-37.48-0.18-54.31-9.13c-14.96-7.96-24.33-18.66-28.67-32.74
				c-4.63-15.08-1.53-28.3,9.52-40.44c6.38-7.01,13.06-12.19,20.42-15.86l1.52-0.76l-0.58-1.59c-0.85-2.34-2.63-3.01-4.56-3.77
				c-2.03-1.02-4.09-1.97-6.15-2.93c-4.39-2.03-8.48-3.93-12.18-6.47c-7.74-5.29-13.27-3.31-19.17,1.32
				c-21.71,17.06-28.39,41.25-18.34,66.38c7.72,19.29,20.77,34.68,39.91,47.06c0.88,0.58,1.76,1.16,2.63,1.78l2.61,1.83l-3.17,0.26
				c-0.69,0.05-1.39,0.07-2.11,0.07c-0.79,0-1.6-0.02-2.52-0.05l-1.43-0.05c-41.44-1-71.57-16.37-92.1-46.99
				c-17.73-26.45-17.14-62.64,1.41-87.98c3.49-4.76,7.91-8.74,13.46-13.25l2.91-2.36l-3.61-0.95c-4.02-1.06-8.12-1.59-12.21-1.59
				c-12.63,0-24.72,4.99-34.03,14.06c-13.94,13.55-19.49,33.55-14.85,53.5c3.38,14.52,10.13,27.26,20.05,37.88l4.26,4.56l-5.62-2.77
				c-3.49-1.73-6.71-3.82-9.85-6.4c-25.25-20.74-32.65-57.65-17.22-85.85c10.94-20,28.95-30.99,53.53-32.7
				c17.67-1.22,35.98,2.38,57.48,11.44c17.81,7.51,39.21,15.68,62.78,19.56c31.51,5.15,62.11-0.07,90.96-15.58
				c44.81-24.03,71.68-62.41,79.91-114.06c3.45-21.67,2.82-44.63-1.96-68.6c-0.25-1.25-0.56-2.96-2.26-4.49l-1.69-1.55l-1.2,1.94
				c-3.93,6.36-8.93,12.28-15.28,18.13c-2.96,2.71-2.45,6.1-2.1,8.55c4.76,32.05-0.26,62.25-14.91,89.78
				c-19.88,37.3-51.5,59.42-94.01,65.76c-22.91,3.38-44.32-1.89-69.41-10.89c-8.49-3.05-17.3-6.57-25.69-9.94
				c-7.01-2.8-14.27-5.69-21.48-8.33c-23.45-8.65-44.69-10.18-64.9-4.74c-30.27,8.14-52.63,33.66-56.95,65
				c-1.02,7.37-2.85,17-2.38,24.32l0.39,5.97l-2.55-5.41c-13.16-27.84-5.78-59.59,16.42-82.85c20.33-21.29,46.52-30.15,79.96-27.1
				c18.96,1.73,36.58,7.72,49.8,12.74c18.01,6.87,35.72,9.96,54.08,9.53c39.03-0.92,74.13-31.58,79.91-69.78
				c4.39-29.02-3.47-55.96-24.03-82.34c-6.78-8.69-14.55-16.56-22.06-24.16c-5.29-5.37-10.78-10.91-15.84-16.69
				c-6.75-7.68-13.64-16.03-17.41-26.13c-5.16-13.83-2.8-26.59,7.22-38.99c11.08-13.73,26.06-22.52,47.17-27.65l6.66-1.62l-5.78,3.7
				c-9.04,5.78-16.37,10.98-22.71,17.5c-16.11,16.56-18.15,36.88-5.64,55.72c13.06,19.63,31.35,29.09,53.02,27.1
				c23.1-2.04,45.57-17,57.41-39.22c2.92-5.5,5.25-11.33,7.12-17.83l1.25-4.35l0.97,4.42c3.7,16.83-4.69,39.42-15.31,53.99
				c-12.72,17.44-33.27,25.44-56.67,23.1l-4.19-0.41l2.48,3.4c7.35,10.06,12.3,18.25,16.03,26.55c1.44,3.21,4.12,3.49,7.31,3.37
				c25.81-0.35,46.68-11.24,61.97-32.35c7.91-10.92,12.97-33.41,17.18-50.41l1.11-4.48l1.11,4.48c1.67,6.7,3.77,24.16,2.22,32.51
				c-0.63,3.4,0.19,6.45,0.97,8.74c9.41,27.14,13.29,54.99,11.52,82.78c-3.01,47.77-19.91,85.11-51.7,114.15
				c-21.97,20.09-49.07,33.3-80.54,39.29c-14.41,2.75-28.63,2.41-45.53,1.11l-12.35-0.97l11.49,4.62
				c13.92,5.59,25.66,8.83,36.9,10.18c31.47,3.84,59.82-2.24,84.95-17.76c65.55-40.47,104.81-138.06,82.68-212.2
				c0-0.02-6.31-21.14-6.31-21.14l10.22,20.28c7,18.24,13.48,35.7,16.21,49.46c5.06,25.53,4.53,49.76,3.38,72.72
				C491.26,292.45,486.82,310.74,478.78,326.72z"/>
		</g>
	</g>
</g>
<g id="Dimensions">
</g>
</svg>
