<?xml version="1.0" encoding="utf-8"?>
<!-- Generator: Adobe Illustrator 28.2.0, SVG Export Plug-In . SVG Version: 6.00 Build 0)  -->
<svg version="1.1" xmlns="http://www.w3.org/2000/svg" xmlns:xlink="http://www.w3.org/1999/xlink" x="0px" y="0px"
	 viewBox="0 0 500 49.6" style="enable-background:new 0 0 500 49.6;" xml:space="preserve">
<style type="text/css">
	.st0{fill:#FFFFFF;}
</style>
<g id="Layer_1">
	<g>
		<g>
			<path class="st0" d="M28,24.28L45.41,3.29c0.38-0.47,0.54-0.95,0.47-1.43c-0.06-0.49-0.33-0.91-0.85-1.29
				c-0.54-0.36-1.2-0.55-1.97-0.55h-1.12c-0.91,0-1.56,0.2-2.03,0.69L25.45,17.96L6.68,41.01V2.16c0-0.44-0.16-1.06-0.88-1.59
				C5.29,0.19,4.63,0,3.84,0H2.82C2.03,0,1.39,0.19,0.88,0.57C0.14,1.1,0,1.73,0,2.16v44.01c0,1.32,0.6,3.53,4.66,3.53
				c1.72,0,3.29-0.77,4.7-2.35l14.89-18.42l16.94,19.91c0.43,0.44,1.1,0.65,2.1,0.65h1.12c2.55,0,2.82-1.42,2.82-2.02
				c0-0.39-0.16-0.82-0.49-1.26L28,24.28z"/>
			<path class="st0" d="M136.46,0.02h-0.91c-0.79,0-1.43,0.19-1.94,0.57c-0.74,0.54-0.88,1.17-0.88,1.59v45.26
				c0,0.43,0.16,1.06,0.88,1.59c0.5,0.38,1.17,0.57,1.95,0.57h0.91c0.71,0,1.32-0.19,1.86-0.55c0.79-0.54,0.96-1.17,0.96-1.61V2.18
				c0-0.44-0.17-1.09-0.96-1.61C137.8,0.21,137.17,0.02,136.46,0.02z"/>
			<path class="st0" d="M273.67,0.02h-1.02c-0.79,0-1.43,0.19-1.94,0.57c-0.74,0.54-0.88,1.17-0.88,1.59v29.37
				c0,2.52-0.61,4.71-1.81,6.51c-1.2,1.81-2.77,3.15-4.66,4c-3.62,1.64-7.36,2.51-11.08,2.6h-0.9c-3.88-0.09-7.64-0.95-11.2-2.54
				c-1.95-0.88-3.56-2.25-4.76-4.06c-1.2-1.8-1.81-3.99-1.81-6.51V2.17c0-0.43-0.16-1.06-0.88-1.59c-0.5-0.38-1.17-0.57-1.95-0.57
				h-1.02c-0.79,0-1.43,0.19-1.94,0.57c-0.74,0.54-0.88,1.17-0.88,1.59v29.37c0,3.43,0.85,6.44,2.52,8.96
				c1.67,2.51,3.89,4.41,6.6,5.66c4.98,2.27,10.05,3.43,15.09,3.43h1.23c5.06,0,10.07-1.15,14.89-3.43
				c2.69-1.24,4.93-3.14,6.63-5.64c1.72-2.52,2.58-5.53,2.58-8.96V2.19c0-0.44-0.17-1.09-0.96-1.61
				C275.01,0.2,274.38,0.02,273.67,0.02z"/>
			<path class="st0" d="M402.74,44.57h-33.23V2.17c0-0.44-0.17-1.09-0.96-1.61c-0.54-0.36-1.17-0.55-1.87-0.55h-1.02
				c-0.71,0-1.34,0.19-1.86,0.54c-0.8,0.54-0.96,1.17-0.96,1.62v43.6c0,1.7,0.87,3.73,4.96,3.73h34.95c0.71,0,1.34-0.19,1.84-0.57
				c0.74-0.54,0.88-1.17,0.88-1.59v-0.61C405.47,46.08,405.2,44.57,402.74,44.57z"/>
			<path class="st0" d="M499.04,0.57c-0.54-0.36-1.17-0.55-1.87-0.55h-0.91c-0.79,0-1.43,0.19-1.94,0.57
				c-0.74,0.54-0.88,1.17-0.88,1.59v45.26c0,0.43,0.16,1.06,0.88,1.59c0.5,0.38,1.17,0.57,1.95,0.57h0.91
				c0.71,0,1.32-0.19,1.86-0.55c0.79-0.54,0.96-1.17,0.96-1.61V2.18C500,1.74,499.83,1.09,499.04,0.57z"/>
		</g>
	</g>
</g>
<g id="Dimensions">
</g>
</svg>
