<svg xmlns="http://www.w3.org/2000/svg" version="1.1" xmlns:xlink="http://www.w3.org/1999/xlink" width="1000" height="1000"><style>
    #light-icon {
      display: inline;
    }
    #dark-icon {
      display: none;
    }

    @media (prefers-color-scheme: dark) {
      #light-icon {
        display: none;
      }
      #dark-icon {
        display: inline;
      }
    }
  </style><g id="light-icon"><svg xmlns="http://www.w3.org/2000/svg" version="1.1" xmlns:xlink="http://www.w3.org/1999/xlink" width="1000" height="1000"><g><g transform="matrix(2,0,0,2,0,0)"><svg xmlns="http://www.w3.org/2000/svg" version="1.1" xmlns:xlink="http://www.w3.org/1999/xlink" width="500" height="500"><svg version="1.1" xmlns="http://www.w3.org/2000/svg" xmlns:xlink="http://www.w3.org/1999/xlink" x="0px" y="0px" viewBox="0 0 500 500" style="enable-background:new 0 0 500 500;" xml:space="preserve">
<style type="text/css">
	.st0{fill:#2F2F2B;}
</style>
<g id="Layer_1">
	<g>
		<g>
			<path class="st0" d="M132.25-153.34l11.05-13.32c0.24-0.3,0.34-0.6,0.3-0.91s-0.21-0.58-0.54-0.82
				c-0.34-0.23-0.76-0.35-1.25-0.35h-0.71c-0.58,0-0.99,0.13-1.29,0.44l-9.18,10.95l-11.91,14.63v-24.66c0-0.28-0.1-0.67-0.56-1.01
				c-0.32-0.24-0.74-0.36-1.24-0.36h-0.65c-0.5,0-0.91,0.12-1.23,0.36c-0.47,0.34-0.56,0.74-0.56,1.01v27.93
				c0,0.84,0.38,2.24,2.96,2.24c1.09,0,2.09-0.49,2.98-1.49l9.45-11.69l10.75,12.64c0.27,0.28,0.7,0.41,1.33,0.41h0.71
				c1.62,0,1.79-0.9,1.79-1.28c0-0.25-0.1-0.52-0.31-0.8L132.25-153.34z"></path>
			<path class="st0" d="M201.09-168.74h-0.58c-0.5,0-0.91,0.12-1.23,0.36c-0.47,0.34-0.56,0.74-0.56,1.01v28.67
				c0,0.27,0.1,0.67,0.56,1.01c0.32,0.24,0.74,0.36,1.24,0.36h0.58c0.45,0,0.84-0.12,1.18-0.35c0.5-0.34,0.61-0.74,0.61-1.02v-28.67
				c0-0.28-0.11-0.69-0.61-1.02C201.94-168.62,201.54-168.74,201.09-168.74z"></path>
			<path class="st0" d="M288.18-168.74h-0.65c-0.5,0-0.91,0.12-1.23,0.36c-0.47,0.34-0.56,0.74-0.56,1.01v18.64
				c0,1.6-0.39,2.99-1.15,4.13c-0.76,1.15-1.76,2-2.96,2.54c-2.3,1.04-4.67,1.59-7.03,1.65h-0.57c-2.46-0.06-4.85-0.6-7.11-1.61
				c-1.24-0.56-2.26-1.43-3.02-2.58c-0.76-1.14-1.15-2.53-1.15-4.13v-18.64c0-0.27-0.1-0.67-0.56-1.01
				c-0.32-0.24-0.74-0.36-1.24-0.36h-0.65c-0.5,0-0.91,0.12-1.23,0.36c-0.47,0.34-0.56,0.74-0.56,1.01v18.64
				c0,2.18,0.54,4.09,1.6,5.69c1.06,1.59,2.47,2.8,4.19,3.59c3.16,1.44,6.38,2.18,9.58,2.18h0.78c3.21,0,6.39-0.73,9.45-2.18
				c1.71-0.79,3.13-1.99,4.21-3.58c1.09-1.6,1.64-3.51,1.64-5.69v-18.64c0-0.28-0.11-0.69-0.61-1.02
				C289.03-168.62,288.63-168.74,288.18-168.74z"></path>
			<path class="st0" d="M370.1-140.46h-21.09v-26.91c0-0.28-0.11-0.69-0.61-1.02c-0.34-0.23-0.74-0.35-1.19-0.35h-0.65
				c-0.45,0-0.85,0.12-1.18,0.34c-0.51,0.34-0.61,0.74-0.61,1.03v27.67c0,1.08,0.55,2.37,3.15,2.37h22.18
				c0.45,0,0.85-0.12,1.17-0.36c0.47-0.34,0.56-0.74,0.56-1.01v-0.39C371.83-139.5,371.66-140.46,370.1-140.46z"></path>
			<path class="st0" d="M431.22-168.39c-0.34-0.23-0.74-0.35-1.19-0.35h-0.58c-0.5,0-0.91,0.12-1.23,0.36
				c-0.47,0.34-0.56,0.74-0.56,1.01v28.67c0,0.27,0.1,0.67,0.56,1.01c0.32,0.24,0.74,0.36,1.24,0.36h0.58
				c0.45,0,0.84-0.12,1.18-0.35c0.5-0.34,0.61-0.74,0.61-1.02v-28.67C431.83-167.65,431.72-168.06,431.22-168.39z"></path>
		</g>
	</g>
	<path class="st0" d="M431.71,78.57c-0.13-0.13-0.25-0.21-0.38-0.29c-0.08-0.17-0.17-0.29-0.29-0.42
		c-9.13-9.62-19.05-18.48-29.44-26.47c-0.08-0.08-0.21-0.13-0.29-0.17c-0.08-0.08-0.21-0.21-0.33-0.29
		c-19.43-14.76-41.03-26.63-64.27-35.29c-0.13-0.08-0.25-0.13-0.42-0.13c-10.89-4.01-21.69-7.23-32.12-9.53c-0.04,0-0.04,0-0.08,0
		c-0.08-0.04-0.13-0.04-0.21-0.04C286.03,1.97,267.82,0,249.73,0c-0.5,0-1,0-1.51,0.04l-0.92,0.04c-0.5,0-1,0-1.51,0.04l-3.01,0.08
		c-1.42,0.04-2.81,0.04-4.23,0.13c-25,1.09-49.66,5.98-73.36,14.51c-0.17,0.04-0.33,0.08-0.46,0.17
		c-33.79,12.21-65.15,32.03-90.74,57.28l-0.5,0.46C25.8,120.09-0.45,183.02-0.45,249.92c0,25.3,3.81,50.34,11.31,74.34
		C43.59,429.38,139.61,500,249.77,500c110.17,0,206.18-70.62,238.92-175.74c7.5-24,11.31-48.96,11.31-74.3
		C499.96,186.03,475.71,125.19,431.71,78.57z M431.5,113.69c0.5-2.72,0.38-9.2,0.04-15.68c25.25,30.06,42.71,65.86,50.58,103.91
		c-3.73,64.85-40.53,129.58-91.7,161.11c-26.3,16.22-55.98,22.45-88.35,18.44c-11.64-1.42-23.83-4.77-38.31-10.54l-28.22-11.33
		l30.32,2.38c17,1.3,31.28,1.63,45.68-1.09c31.61-6.02,58.79-19.23,80.81-39.35c31.86-29.1,48.82-66.48,51.84-114.4
		c1.76-27.93-2.14-55.95-11.6-83.21C431.71,121.3,430.74,117.75,431.5,113.69z M426.89,92.62l-0.8,3.68
		c-3.1,14.38-6.62,30.65-11.77,37.76c-16.12,22.2-38.1,33.7-65.49,34.04c-2.6,0.08-7.45,0.25-9.84-5.02
		c-3.68-8.24-8.67-16.43-16.08-26.59l-6.11-8.32c3.27,0.29,10.17,0.96,10.3,0.96c17.46,1.67,33.75-3.72,47.23-15.68
		c13.27-11.75,22.23-28.85,24.87-47.25C409.1,74.22,418.35,83.04,426.89,92.62z M348.3,191.59c-0.29-2.68,0.25-4.85,1.55-6.48
		c1.34-1.59,3.27-2.51,5.74-2.72c10.51-0.84,19.47-2.93,27.43-6.36c2.39-1,4.4-1,6.2,0.08c0.96,0.59,1.63,1.34,2.09,2.47
		c0.08,0.17,0.17,0.33,0.25,0.46c0.17,0.46,0.25,0.88,0.38,1.59c0.08,0.5,0.08,0.92,0.13,1.3l0.04,0.71
		c2.39,17.85,0.21,35.83-6.49,54.86l-0.08,0.13c-0.04,0.04-0.04,0.08-0.08,0.17c-1.34,3.76-2.81,7.48-4.35,11.08
		c-10.93,25-26.8,43.23-48.49,55.69c-20.52,11.79-43.17,15.89-67.25,12l-24.33-3.97l24.12-5.14c9.04-1.92,19.72-4.56,30.02-9.28
		c3.48-1.59,6.83-3.39,9.92-5.31c26.46-16.73,41.33-41.44,44.09-73.51C350.01,209.57,349.22,199.78,348.3,191.59z M325.98,27.43
		c0.29-0.46,0.63-0.88,1-1.38c17.25,5.94,33.71,13.88,49.07,23.58c-2.05,1.51-4.23,2.84-6.57,3.97c-10.59,5.06-22.99,5.52-34,1.17
		c-6.36-2.26-10.8-6.44-12.52-11.75C321.88,39.47,321.46,33.99,325.98,27.43z M290.97,16.68c10.17,1.8,20.22,4.26,30.15,7.4
		c-2.55,1.84-4.52,3.93-5.95,6.27c-4.56,7.48-4.31,17.1,0.63,25.05c4.4,7.11,11.77,11.83,21.31,13.71
		c4.44,0.92,9.25,1.17,14.32,0.67c11.89-1.05,23.07-8.15,28.35-17.81c5.49,3.6,10.8,7.4,16,11.46
		c-7.16,15.89-16.29,28.31-27.09,36.96c-13.36,10.75-31.11,15.3-48.7,12.54c-18.13-2.8-34.17-12.88-44.01-27.68
		c-13.52-20.32-11.35-42.27,6.07-60.13c1.59-1.63,4.61-4.35,8.33-7.44C290.68,17.44,290.89,17.06,290.97,16.68z M68.51,97.22
		c-0.08,0.71-0.13,1.42-0.21,2.13c-0.54,7.53,1.93,18.98,3.98,28.22c1.05,4.85,1.84,8.49,2.26,11.33c1.05,7.44-2.26,8.53-7.41,10.16
		c-1.67,0.54-3.39,1.09-5.49,2.13c-2.72,1.34-6.41,2.47-10.47,3.72c-4.23,1.3-8.63,2.59-11.93,4.35c-4.35,2.26-8.25,4.81-11.77,7.65
		C36.98,141.7,50.8,118.12,68.51,97.22z M25.59,173.44c8.17-4.01,16.87-7.32,26.71-10.16c3.27-0.96,7.16-1.21,10.51-1.34l4.56-0.08
		c10.34-0.13,23.2-0.25,25.58-10.87c1.76-7.78-2.55-15.81-6.83-23.71c-2.55-4.72-5.19-9.66-6.41-14.43
		c-1.97-7.57-3.31-15.3-4.1-23.67c15.28-16.47,32.79-30.44,51.88-41.98c-1.38,1.71-2.81,3.43-4.1,5.31
		c-12.27,17.44-15.95,37.21-11.01,58.87c3.85,16.81,13.32,31.69,29.81,46.83c11.39,10.45,23.45,19.02,38.02,29.1
		c5.4,3.76,10.59,7.53,15.24,12.5c1.93,2.13,2.68,4.14,2.22,6.23c-0.59,2.55-2.76,5.1-7.41,4.52c-4.56-0.54-8.08-2.3-11.18-3.89
		l-1.84-0.92c-24.87-12-47.82-17.81-70.05-17.81c-7.75,0-15.66,0.71-23.57,2.13c-19.37,3.51-48.21,17.57-66.41,37.26l0,0l-0.18,0.2
		c-0.09,0.1-0.18,0.2-0.27,0.3l-3.54,3.9c1.48-19.88,5.47-39.42,11.86-58.12C25.25,173.57,25.42,173.52,25.59,173.44z M12.75,238.07
		c1.18-1.58,2.64-3.08,3.92-4.26c4.19-3.61,8.27-6.9,10.55-8.66c26.04-20.24,66.41-29.52,100.45-23.04
		c15.66,2.97,29.85,9.28,42.84,15.68c9,4.43,17.25,7.9,26.63,7.48c5.65-0.29,10.76-2.76,13.99-6.82c2.93-3.72,4.06-8.36,3.22-13.09
		c-0.71-3.85-2.72-7.4-6.66-11.54c-7.29-7.74-16.04-14.05-24.45-20.11l-5.15-3.72c-13.69-9.91-27.84-20.2-38.73-34.41
		c-15.87-20.7-19.76-43.99-11.93-71.25l5.11-17.77c0.21-0.75-0.13-1.51-0.75-1.97c1.13-0.67,2.22-1.38,3.35-2.01l1.38,22.75
		c1.47,23.79,11.35,43.11,31.15,60.84c9.25,8.24,19.68,16.06,28.89,22.96l2.05,1.55c4.56,3.43,10.84,8.15,16.62,12.84
		c11.01,8.86,22.36,18.73,29.23,33.12c7.2,15.09,4.73,31.44-6.53,42.65c-10.89,10.87-25,14.76-44.34,12.25
		c-11.47-1.51-22.19-5.56-32.95-9.58c-10.09-3.76-20.52-7.69-31.49-9.24c-24.08-3.47-46.65-0.21-65.78,9.37
		c-22.67,11.26-40.17,32.66-46.05,56.07l-0.07,0.11c-3.21-15.82-4.88-31.97-4.88-48.2C12.36,246.08,12.51,242.07,12.75,238.07z
		 M38.49,357.92l-0.75-1.42c-0.54-1.05-1.09-2.09-1.59-3.14c-1.76-3.55-3.48-7.36-5.23-11.58c-1-2.38-1.93-4.81-2.85-7.23
		c-0.67-1.8-1.34-3.6-2.01-5.44c-1-2.8-2.01-5.64-3.01-8.86l-0.17-0.54c-1.52-4.93-2.88-9.92-4.07-14.94
		c0.48-1.33,1.1-2.71,1.7-3.93c0.02-0.04,0.05-0.07,0.07-0.12c9.38-18.65,23.66-33.99,41.24-44.36c22.4-13.21,49.62-17.6,74.7-12.17
		c9.25,2.01,18.26,5.39,27.01,8.7c9.97,3.76,20.27,7.61,30.9,9.45c18.67,3.26,36.81-0.79,51-11.25c14.32-10.54,20.31-25,17.8-42.94
		c-1.42-10.16-5.86-19.9-13.94-30.65c-10.05-13.3-23.57-23.37-36.68-33.07l-4.23-3.18c-14.78-11.08-31.53-23.58-43.97-40.56
		c-13.11-17.85-17.59-35.37-13.61-53.52c1.05-4.85,2.72-9.66,5.07-14.76c17.34-7.48,35.59-12.88,54.35-16.01
		c-7.5,5.94-11.1,11.92-14.28,22.41c-12.69,42.11,19.3,70.75,47.52,96l1.26,1.13c12.94,11.58,26.3,23.54,35.88,39.14
		c15.16,24.67,15.16,53.23-0.04,74.59c-9.67,13.55-23.62,22.62-43.84,28.47c-0.88,0.25-1.47,1.17-1.34,2.09
		c0.13,0.92,0.92,1.59,1.84,1.59h0.04c2.85-0.04,5.61-0.25,8.42-0.67c20.39-3.01,37.6-13.71,48.53-30.23
		c10.89-16.43,13.94-36.38,8.71-56.2c-4.31-16.27-13.48-31.19-28.89-46.96c-5.49-5.56-11.22-11.08-16.5-16.18l-2.97-2.8
		c-4.98-4.81-9.67-9.32-14.19-13.92c-11.64-11.79-19.85-24.08-25-37.51c-8.84-22.96-6.07-41.98,8.58-58.04
		c1.84-2.05,3.81-3.85,5.53-5.39c7.29-0.63,13.94-0.92,20.35-0.92c12.18,0,24.29,0.92,36.3,2.8c-10.01,5.69-19.72,13.63-25.79,21.12
		c-9.55,11.79-11.81,23.96-6.95,37.05c3.68,9.83,10.55,18.1,17.25,25.8c12.49,14.35,27.03,26.6,38.77,41.65
		c21.44,27.47,29.65,55.57,25.04,85.93c-6.07,40.18-43,72.38-84.08,73.34c-19.34,0.42-37.64-2.84-56.19-9.91
		c-13.36-5.06-31.11-11.08-50.04-12.84c-33.37-2.84-59.29,5.85-79.31,26.76c-17.04,17.85-24.87,39.22-22.23,60.63
		C41.12,362.98,39.78,360.47,38.49,357.92z M79.98,415.54c-5.11-5.18-10.01-10.7-14.66-16.39l-2.01-2.59
		c-2.01-2.55-3.98-5.14-5.86-7.74l-0.63-0.88c-0.71-1-1.42-1.97-2.14-3.01c-1.59-2.3-3.14-4.64-4.69-7.02
		c-1.25-1.94-2.45-3.87-3.59-5.78c0.12-0.86,0.26-1.78,0.39-2.6c0-0.02,0.02-0.04,0.02-0.07l0.33-2.19c0,0,0-0.01,0-0.01h0
		l0.42-2.74c0.17-1,0.29-2.05,0.42-2.97c4.56-32.99,28.14-59.88,60.04-68.45c21.15-5.69,43.34-4.06,67.79,4.89
		c6.91,2.55,14.07,5.35,20.35,7.86l2.85,1.13c8.63,3.43,16.79,6.69,24.87,9.58c25.17,9.03,46.65,14.34,69.47,10.96
		c42.42-6.31,74.03-28.35,93.84-65.52c14.66-27.47,19.68-57.7,14.91-89.73c-0.38-2.55-1.13-7.32,2.97-11.08
		c6.28-5.81,11.22-11.67,15.12-17.9l2.93-4.77l4.15,3.8c2.34,2.13,2.85,4.64,3.1,6.02c4.9,24.54,5.61,48.38,2.01,70.79
		c-8.54,53.44-36.39,93.2-82.86,118.08c-29.94,16.06-61.72,21.49-94.46,16.14c-24.45-4.01-46.39-12.42-64.61-20.11
		c-21.44-9.03-39.61-12.63-57.36-11.46c-24.08,1.67-41.7,12.38-52.38,31.9C70.35,372.76,70.35,396.09,79.98,415.54z M130.35,454.8
		c-5.95-3.47-11.72-7.19-17.67-11.37c-5.65-4.01-11.18-8.28-16.37-12.71c-1.67-1.42-3.31-2.84-4.94-4.31c0-0.04-0.04-0.08-0.04-0.13
		c-3.1-6.19-5.44-12.79-7.08-19.69c-4.94-21.24,1-42.57,15.91-57.03c13.36-13,31.99-18.02,49.74-13.38l8.84,2.3l-7.08,5.77
		c-5.53,4.47-9.88,8.36-13.27,12.96c-18.26,24.92-18.84,60.46-1.38,86.47c7.33,10.87,15.74,19.74,25.5,26.72
		C151.54,466.13,140.74,460.86,130.35,454.8z M194.88,480.64l-11.35-5.14c-20.43-9.24-34.17-23.42-42.04-43.32
		c-11.18-28.35-4.52-62.26,16.12-82.41c4.86-4.77,7.58-7.02,11.51-7.02c2.68,0,5.53,1.09,9.97,2.89c3.52,1.42,6.99,2.8,10.55,4.22
		l17.96,7.15l-7.33,4.89c-17.46,11.62-28.35,29.02-30.65,48.92c-2.43,20.78,4.61,41.6,19.22,57.24l13.23,14.13
		C199.61,481.73,197.22,481.18,194.88,480.64z M226.7,485.91c-0.04,0-0.13,0-0.17,0c-0.08,0-0.21,0-0.29,0.04
		c-0.67-0.08-1.34-0.17-2.01-0.25l-1.26-0.13c-15.62-11.92-26.55-26.09-33.46-43.28c-10.72-26.76-3.6-52.56,19.55-70.71
		c5.11-4.01,12.14-7.9,21.65-2.09l0.33,0.13c0.21,0.13,21.69,11.96,39.49,16.18c-4.31,0.75-11.22,2.38-18.42,5.77
		c-6.62,3.6-12.56,8.32-18.26,14.55c-10.55,11.58-13.52,24.17-9.13,38.55c4.19,13.59,13.32,24,27.89,31.74
		c8.42,4.47,17,7.4,25.96,8.86C261.33,487.37,244.54,487.62,226.7,485.91z M436.98,347.3c-0.71,22.16-4.77,43.65-11.77,62.22
		c-0.96,1.05-1.93,2.05-2.93,3.09l-1.17,1.21c-5.15,5.35-10.47,10.41-15.87,15.09c-17,14.72-35.88,26.93-56.15,36.29
		c-0.13,0.04-0.25,0.13-0.38,0.21c-3.77,1.71-7.75,3.43-11.85,5.02c-24.37,4.89-49.53,4.31-72.73-1.67
		c-12.14-3.14-22.99-14.89-25.75-27.97c-0.08-0.33-0.25-0.67-0.5-0.92l0.13-1.3c-0.08-0.5-0.08-1-0.08-1.51l-0.08-1.76
		c-0.04-0.54-0.08-1.05-0.08-1.59c0-0.92,0.13-1.8,0.29-3.05l0.08-0.84c0.04-0.42,0.08-0.88,0.17-1.3c0.21-1,0.59-1.97,1-3.22
		l0.25-0.79c0.08-0.29,0.17-0.59,0.29-0.84c0.67-1.59,1.51-3.09,2.47-4.52c9.55-13.71,23.87-21.45,42.63-22.96
		c5.32-0.46,10.68-0.5,14.78-0.5l5.86,0.04c4.86,0.08,12.1,0.17,18.84-0.33c7.75-0.54,15.91-1.97,25.12-4.35l38.69-14.51l-3.01,6.15
		c-1.97,4.06-4.65,8.11-8.08,12.5c-0.5,0.67-1.09,1.3-1.67,1.92l-1,1.13c-2.85,3.39-6.07,6.61-9.55,9.58
		c-0.42,0.33-0.84,0.67-1.3,0.96c-0.42,0.29-0.88,0.63-1.3,0.96c-2.68,2.13-5.53,4.39-8.67,6.4c-0.8,0.5-1.67,0.96-2.55,1.42
		c-0.67,0.33-1.3,0.67-1.93,1.05l-1.38,0.79c-2.39,1.38-4.65,2.68-7.12,3.81c-1.13,0.5-2.3,0.96-3.52,1.42
		c-0.8,0.29-1.55,0.59-2.34,0.88l-1.67,0.71c-2.34,0.96-4.69,1.92-7.24,2.76c-1.42,0.5-2.93,0.88-4.44,1.25
		c-0.92,0.25-1.8,0.46-2.72,0.71l-2.39,0.67c-2.3,0.67-4.61,1.3-7.08,1.84c-1.8,0.38-3.68,0.71-5.57,1l-5.11,0.88
		c-2.55,0.5-5.07,0.96-7.75,1.3c-2.14,0.29-4.4,0.5-6.62,0.67l-5.49,0.54c-2.68,0.29-5.36,0.59-8.21,0.75
		c-2.3,0.13-4.77,0.21-7.2,0.29l-7.03,0.25c-2.18,0.08-4.4,0.21-6.7,0.21c-0.96,0-1.76,0.75-1.84,1.71
		c-0.08,0.96,0.59,1.84,1.51,2.01c13.57,2.51,29.27,4.81,43.21,3.72c34.38-2.89,59.79-12.96,82.45-32.66
		c0.46-0.38,0.84-0.79,1.42-1.38c0.63-0.67,1.13-1.21,1.76-1.8c6.87-7.32,20.85-22.41,22.65-42.57c9.8-6.77,27.47-19.86,36.09-31.61
		l0.59-0.54L436.98,347.3z M484.51,284.79c-0.13,0.96-0.29,1.92-0.46,2.89l-0.21,1.21c-0.88,5.23-1.97,10.58-3.22,15.93l-0.38,1.71
		c-0.25,1-0.46,2.05-0.71,3.05c-0.63,2.38-1.3,4.68-2.01,7.07l-0.17,0.54c-0.63,2.13-1.3,4.22-1.97,6.36
		c-0.75,2.3-1.51,4.6-2.34,6.86c-1.21,3.39-2.55,6.77-3.94,10.08c-0.88,2.17-1.84,4.35-2.85,6.48c-1.26,2.76-2.51,5.52-3.89,8.24
		c-0.84,1.71-1.72,3.39-2.6,5.06c-1.63,3.09-3.35,6.15-5.11,9.16l-0.84,1.42c-0.33,0.54-0.63,1.13-0.96,1.63
		c-2.34,3.89-4.9,7.78-7.62,11.71l-2.18,3.09c-1.59,2.22-3.22,4.43-4.9,6.65c6.66-16.93,10.59-37.67,11.1-59.08
		c0.17-7.28,0.38-15.55,2.93-23.33l0.21-0.59c4.23-6.4,14.86-23.08,22.07-39.97l10.34-27.47l1.88,19.61
		C486.31,270.24,485.6,277.55,484.51,284.79z"></path>
</g>
<g id="Dimensions">
</g>
</svg></svg></g></g></svg></g><g id="dark-icon"><svg xmlns="http://www.w3.org/2000/svg" version="1.1" xmlns:xlink="http://www.w3.org/1999/xlink" width="1000" height="1000"><g><g transform="matrix(2,0,0,2,0,0)"><svg xmlns="http://www.w3.org/2000/svg" version="1.1" xmlns:xlink="http://www.w3.org/1999/xlink" width="500" height="500"><svg version="1.1" xmlns="http://www.w3.org/2000/svg" xmlns:xlink="http://www.w3.org/1999/xlink" x="0px" y="0px" viewBox="0 0 500 500" style="enable-background:new 0 0 500 500;" xml:space="preserve">
<style type="text/css">
	.st0{fill:#2F2F2B;}
	.st1{fill:#DA7A5A;}
</style>
<g id="Layer_1">
	<rect class="st0" width="500" height="500"></rect>
	<g>
		<g>
			<path class="st1" d="M179.18,349.33c-4.11-1.67-6.64-2.63-8.76-2.63c-2.94,0-5.06,1.83-9.43,6.11
				c-19.52,19.1-25.78,51.21-15.21,78.08c7.44,18.89,20.48,32.33,39.84,41.11l8.65,3.93l-6.48-6.94
				c-14.87-15.91-21.99-37.18-19.54-58.36c2.36-20.35,13.44-38.1,31.24-49.97l3-2.01l-11.07-4.41
				C187.27,352.6,183.25,351.02,179.18,349.33z"></path>
			<path class="st1" d="M386.54,186.27c-0.09-1.37-0.26-2.78-1.55-3.56c-0.95-0.58-2.13-0.58-3.61,0.07
				c-8.02,3.47-17.09,5.59-27.73,6.45c-1.71,0.14-2.98,0.72-3.79,1.69c-1.27,1.53-1.04,3.68-0.95,4.37
				c0.92,8.19,1.73,17.9,0.86,27.81c-2.8,32.37-17.76,57.32-44.47,74.2c-12.93,8.18-27.51,12.03-40.05,14.71l-9.81,2.11l9.92,1.62
				c22.85,3.72,44.54-0.18,64.19-11.47c23.68-13.62,40.26-34.66,50.69-64.3c6.48-18.43,8.56-35.77,6.4-53.06L386.54,186.27z"></path>
			<path class="st1" d="M322.97,398.54c-6.22,0.44-12.55,0.42-18.68,0.35c-1.85-0.02-3.77-0.02-5.73-0.02
				c-4.63,0-9.52,0.07-14.31,0.48c-17.55,1.43-30.96,8.65-39.82,21.43c-0.95,1.37-1.59,2.82-2.18,4.26l-0.11-0.02
				c0,0-0.21,0.51-0.41,1.02c0,0,0,0,0,0.02c-0.55,1.5-0.85,3.01-1.13,4.55c-0.05,0.32-0.19,0.62-0.23,0.95
				c0.05,0.02,0.11,0.02,0.16,0.04c-0.33,2.7-0.39,5.81,0.79,9.07c0,0,88,3.96,128.56-43.75c0.85-1,1.78-1.89,2.57-2.93
				c2.91-3.67,5.55-7.54,7.65-11.79l-32.14,12.03C339.72,396.36,331.41,397.94,322.97,398.54z"></path>
			<path class="st1" d="M250,0C111.54,0-0.7,111.93-0.7,250S111.54,500,250,500s250.7-111.93,250.7-250S388.46,0,250,0z
				 M334.75,24.32l3.91-0.28l-3.14,2.34c-4.6,3.44-9,6.92-12.19,11.86l-0.02,0.02c-3.79,5.52-3.49,10.08-2.55,12.92
				c1.43,4.41,5.25,7.93,10.78,9.9c10.1,3.98,21.44,3.58,31.15-1.07c6.31-3.05,11.54-7.74,15.1-13.6l1.97-3.26l0.14,3.81
				c0.12,3.3-0.39,6.7-1.53,10.11c-3.95,12.55-17.44,22.61-32.07,23.93c-5.27,0.44-10.24,0.19-14.77-0.7
				c-9.99-1.96-17.94-7.05-22.71-14.78c-5.34-8.62-5.57-19.08-0.56-27.29C313.15,30.15,322.56,25.21,334.75,24.32z M189.63,49.81
				c5.9-19.65,23.31-35.68,45.44-41.9c7.84-2.2,14.98-3.14,21.73-2.85l5.5,0.25l-5.13,1.96c-12.44,4.79-22.61,11.65-31.05,20.97
				c-13.6,14.98-16.18,32.72-7.89,54.25c4.95,12.88,12.79,24.63,23.95,35.95c5,5.07,10.15,10.03,15.86,15.52
				c5.36,5.15,11.42,10.98,17.13,16.81c15.45,15.82,24.69,30.85,29.02,47.28c5.34,20.18,2.18,40.54-8.9,57.32
				c-11.12,16.85-28.69,27.81-49.46,30.84c-3.14,0.46-6.24,0.69-9.39,0.69c-6.71,0-13.57-1.06-20.99-3.19l-6.26-1.81l6.5-0.44
				c7.51-0.51,14.17-1.62,20.37-3.42c19.17-5.55,32.35-14.11,41.44-26.92c14.27-20.09,14.26-47.03-0.05-70.34
				c-9.2-14.96-22.17-26.61-34.71-37.87l-0.85-0.76c-13.34-11.98-26.27-23.82-37.73-37.04C189.26,87.91,184.08,68.26,189.63,49.81z
				 M15.03,186.23c6.48-10.63,15.26-18.73,26.82-24.77c6.22-3.26,12.53-6.4,18.4-9.32c7.29-3.61,11.58-6.04,10.48-13.81
				c-1.29-9.22-2.64-22.41-1.83-33.51c0.81-11.08,3.77-20.58,9.02-29.06l2.18-3.54l0.33,4.14c0.18,2.4,0.26,4.37,0.25,6.2
				c-0.12,11.82,1.62,23.61,4.63,35.03c3.24,12.35,16.09,25.2,13.04,38.75c-3.21,14.22-20.99,12.44-32.09,12.85
				c-3.59,0.14-6.94,0.41-9.69,1.2c-14.1,4.05-27.29,9.64-39.63,17.71l-5.04,3.3L15.03,186.23z M20.32,324.43l-1.32,6.15l-0.93-6.22
				c-7.22-48.3,33.83-78.73,64.44-88.17c9.9-3.07,20.18-4.62,30.55-4.62c13.13,0,26.5,2.36,40.88,7.21
				c3.93,1.32,7.88,2.85,11.72,4.32l-0.14,1.18l0.41-1.07c9.23,3.56,18.77,7.24,28.92,8.62c18.01,2.41,31.1-1.16,41.25-11.29
				c10.2-10.18,12.46-25.07,5.89-38.87c-6.5-13.62-17.36-23.1-27.95-31.61c-5.97-4.83-12.21-9.52-18.24-14.04
				c-9.71-7.29-19.52-14.68-28.51-22.71c-19.96-17.85-29.95-37.41-31.44-61.55l-0.67-11l-3.03,10.59
				c-7.44,25.9-3.75,48.02,11.24,67.65c10.38,13.59,24.14,23.58,37.44,33.25l4.83,3.51c8.48,6.13,17.25,12.46,24.56,20.23
				c4.21,4.48,6.43,8.37,7.21,12.69c0.99,5.43-0.32,10.75-3.68,14.98c-3.65,4.6-9.34,7.4-15.65,7.72
				c-10.03,0.53-18.66-3.31-27.45-7.63c-12.55-6.17-26.24-12.28-41.34-15.17c-31.01-5.94-69.92,1.52-96.4,22.11
				c-5.97,4.63-11.22,10.03-16.12,15.14c-2.38,2.48-4.67,5.25-7.22,8.72L5.8,259.6l1.74-6.08c8.92-31.24,46.31-56.16,78.52-62.01
				c30.32-5.5,60-0.53,93.49,15.63l1.76,0.86c3.05,1.53,6.22,3.1,10.15,3.58c3.05,0.37,4.05-1.06,4.33-2.36
				c0.25-1.11-0.26-2.36-1.53-3.74c-4.26-4.62-9.29-8.26-14.5-11.89c-14.47-10.06-26.43-18.55-37.58-28.83
				c-16.58-15.26-26.11-30.31-30.03-47.35c-5.04-22.03-1.27-42.18,11.22-59.93c11.59-16.46,27.29-29.14,46.68-37.69l4.05-1.78
				l-2.68,3.52c-8.99,11.82-14.04,21.94-16.4,32.83c-3.68,17.02,0.53,33.51,12.92,50.41c11.93,16.3,28.21,28.49,42.59,39.28
				l4.14,3.1c13.02,9.71,26.48,19.73,36.49,33.06c8.21,10.91,12.72,20.86,14.18,31.31c2.61,18.7-3.63,33.74-18.52,44.72
				c-16.44,12.12-35.93,15.58-57.94,10.29c-8.19-1.94-16.25-4.95-24.03-7.88l0.12-1.18l-0.41,1.07c-3.56-1.34-7.14-2.66-10.73-3.91
				c-20.95-7.24-39.82-8.81-57.67-4.81c-28.72,6.41-57.64,27.14-70.45,57.11C23.49,312.22,21.71,317.94,20.32,324.43z
				 M478.78,326.72l-3.45,6.85l1.32-7.58c3.63-21.04,4.51-40.53,2.66-59.59l-0.78-8.12l-4.51,12.05c-0.55,1.46-1.11,2.91-1.66,4.35
				c-8.18,19.22-21.02,38.38-21.71,39.38c-2.41,7.33-2.64,14.92-2.8,22.34c-0.62,27.65-7.38,57.99-20.69,78.04
				c-3.86,5.83-8.97,10.96-16.05,16.14l-4.79,3.51l3.15-5.04c13.23-21.18,20.12-52.37,21.04-80.65l0.14-4.53l-7.44,6.87
				c-3.51,3.22-7.19,6.13-10.8,9.16l-8.4,5.67l-3.59,2.18c-1.22,22.01-16.49,37.94-23.36,45.28c-1.06,0.99-1.96,2.11-3.05,3.07
				c-23.26,20.26-49.2,29.53-82.46,32.76c-22.66,1.46-47.87-2.98-47.87-2.98c-0.16,0.33,3.31,7.47,3.77,8.28
				c3.56,6.17,10.24,9.37,16.9,11.08c27.73,7.12,56.91,6.17,84.33-1.89c6.47-1.89,12.81-4.12,19.07-6.61l6.29-2.5l-5.13,4.42
				c-17.51,15.14-38.89,24.56-63.52,28.05c-20.44,2.89-37.48-0.18-54.31-9.13c-14.96-7.96-24.33-18.66-28.67-32.74
				c-4.63-15.08-1.53-28.3,9.52-40.44c6.38-7.01,13.06-12.19,20.42-15.86l1.52-0.76l-0.58-1.59c-0.85-2.34-2.63-3.01-4.56-3.77
				c-2.03-1.02-4.09-1.97-6.15-2.93c-4.39-2.03-8.48-3.93-12.18-6.47c-7.74-5.29-13.27-3.31-19.17,1.32
				c-21.71,17.06-28.39,41.25-18.34,66.38c7.72,19.29,20.77,34.68,39.91,47.06c0.88,0.58,1.76,1.16,2.63,1.78l2.61,1.83l-3.17,0.26
				c-0.69,0.05-1.39,0.07-2.11,0.07c-0.79,0-1.6-0.02-2.52-0.05l-1.43-0.05c-41.44-1-71.57-16.37-92.1-46.99
				c-17.73-26.45-17.14-62.64,1.41-87.98c3.49-4.76,7.91-8.74,13.46-13.25l2.91-2.36l-3.61-0.95c-4.02-1.06-8.12-1.59-12.21-1.59
				c-12.63,0-24.72,4.99-34.03,14.06c-13.94,13.55-19.49,33.55-14.85,53.5c3.38,14.52,10.13,27.26,20.05,37.88l4.26,4.56l-5.62-2.77
				c-3.49-1.73-6.71-3.82-9.85-6.4c-25.25-20.74-32.65-57.65-17.22-85.85c10.94-20,28.95-30.99,53.53-32.7
				c17.67-1.22,35.98,2.38,57.48,11.44c17.81,7.51,39.21,15.68,62.78,19.56c31.51,5.15,62.11-0.07,90.96-15.58
				c44.81-24.03,71.68-62.41,79.91-114.06c3.45-21.67,2.82-44.63-1.96-68.6c-0.25-1.25-0.56-2.96-2.26-4.49l-1.69-1.55l-1.2,1.94
				c-3.93,6.36-8.93,12.28-15.28,18.13c-2.96,2.71-2.45,6.1-2.1,8.55c4.76,32.05-0.26,62.25-14.91,89.78
				c-19.88,37.3-51.5,59.42-94.01,65.76c-22.91,3.38-44.32-1.89-69.41-10.89c-8.49-3.05-17.3-6.57-25.69-9.94
				c-7.01-2.8-14.27-5.69-21.48-8.33c-23.45-8.65-44.69-10.18-64.9-4.74c-30.27,8.14-52.63,33.66-56.95,65
				c-1.02,7.37-2.85,17-2.38,24.32l0.39,5.97l-2.55-5.41c-13.16-27.84-5.78-59.59,16.42-82.85c20.33-21.29,46.52-30.15,79.96-27.1
				c18.96,1.73,36.58,7.72,49.8,12.74c18.01,6.87,35.72,9.96,54.08,9.53c39.03-0.92,74.13-31.58,79.91-69.78
				c4.39-29.02-3.47-55.96-24.03-82.34c-6.78-8.69-14.55-16.56-22.06-24.16c-5.29-5.37-10.78-10.91-15.84-16.69
				c-6.75-7.68-13.64-16.03-17.41-26.13c-5.16-13.83-2.8-26.59,7.22-38.99c11.08-13.73,26.06-22.52,47.17-27.65l6.66-1.62l-5.78,3.7
				c-9.04,5.78-16.37,10.98-22.71,17.5c-16.11,16.56-18.15,36.88-5.64,55.72c13.06,19.63,31.35,29.09,53.02,27.1
				c23.1-2.04,45.57-17,57.41-39.22c2.92-5.5,5.25-11.33,7.12-17.83l1.25-4.35l0.97,4.42c3.7,16.83-4.69,39.42-15.31,53.99
				c-12.72,17.44-33.27,25.44-56.67,23.1l-4.19-0.41l2.48,3.4c7.35,10.06,12.3,18.25,16.03,26.55c1.44,3.21,4.12,3.49,7.31,3.37
				c25.81-0.35,46.68-11.24,61.97-32.35c7.91-10.92,12.97-33.41,17.18-50.41l1.11-4.48l1.11,4.48c1.67,6.7,3.77,24.16,2.22,32.51
				c-0.63,3.4,0.19,6.45,0.97,8.74c9.41,27.14,13.29,54.99,11.52,82.78c-3.01,47.77-19.91,85.11-51.7,114.15
				c-21.97,20.09-49.07,33.3-80.54,39.29c-14.41,2.75-28.63,2.41-45.53,1.11l-12.35-0.97l11.49,4.62
				c13.92,5.59,25.66,8.83,36.9,10.18c31.47,3.84,59.82-2.24,84.95-17.76c65.55-40.47,104.81-138.06,82.68-212.2
				c0-0.02-6.31-21.14-6.31-21.14l10.22,20.28c7,18.24,13.48,35.7,16.21,49.46c5.06,25.53,4.53,49.76,3.38,72.72
				C491.26,292.45,486.82,310.74,478.78,326.72z"></path>
		</g>
	</g>
</g>
<g id="Dimensions">
</g>
</svg></svg></g></g></svg></g></svg>