<?xml version="1.0" encoding="utf-8"?>
<!-- Generator: Adobe Illustrator 28.2.0, SVG Export Plug-In . SVG Version: 6.00 Build 0)  -->
<svg version="1.1" id="Layer_1" xmlns="http://www.w3.org/2000/svg" xmlns:xlink="http://www.w3.org/1999/xlink" x="0px" y="0px"
	 viewBox="0 0 500 288.96" style="enable-background:new 0 0 500 288.96;" xml:space="preserve">
<style type="text/css">
	.st0{fill:#2F2F2B;}
</style>
<g>
	<g>
		<path class="st0" d="M28,263.78l17.41-20.99c0.38-0.47,0.54-0.95,0.47-1.43c-0.06-0.49-0.33-0.91-0.85-1.29
			c-0.54-0.36-1.2-0.55-1.97-0.55h-1.12c-0.91,0-1.56,0.2-2.03,0.69l-14.46,17.25L6.68,280.51v-38.85c0-0.44-0.16-1.06-0.88-1.59
			c-0.5-0.38-1.17-0.57-1.95-0.57H2.82c-0.79,0-1.43,0.19-1.94,0.57C0.14,240.6,0,241.23,0,241.65v44.01c0,1.32,0.6,3.53,4.66,3.53
			c1.72,0,3.29-0.77,4.7-2.35l14.89-18.42l16.94,19.91c0.43,0.44,1.1,0.65,2.1,0.65h1.12c2.55,0,2.82-1.42,2.82-2.02
			c0-0.39-0.16-0.82-0.49-1.26L28,263.78z"/>
		<path class="st0" d="M136.46,239.51h-0.91c-0.79,0-1.43,0.19-1.94,0.57c-0.74,0.54-0.88,1.17-0.88,1.59v45.17
			c0,0.43,0.16,1.06,0.88,1.59c0.5,0.38,1.17,0.57,1.95,0.57h0.91c0.71,0,1.32-0.19,1.86-0.55c0.79-0.54,0.96-1.17,0.96-1.61v-45.17
			c0-0.44-0.17-1.09-0.96-1.61C137.8,239.7,137.17,239.51,136.46,239.51z"/>
		<path class="st0" d="M273.67,239.51h-1.02c-0.79,0-1.43,0.19-1.94,0.57c-0.74,0.54-0.88,1.17-0.88,1.59v29.37
			c0,2.52-0.61,4.71-1.81,6.51c-1.2,1.81-2.77,3.15-4.66,4c-3.62,1.64-7.36,2.51-11.08,2.6h-0.9c-3.88-0.09-7.64-0.95-11.2-2.54
			c-1.95-0.88-3.56-2.25-4.76-4.06c-1.2-1.8-1.81-3.99-1.81-6.51v-29.37c0-0.43-0.16-1.06-0.88-1.59c-0.5-0.38-1.17-0.57-1.95-0.57
			h-1.02c-0.79,0-1.43,0.19-1.94,0.57c-0.74,0.54-0.88,1.17-0.88,1.59v29.37c0,3.43,0.85,6.44,2.52,8.96
			c1.67,2.51,3.89,4.41,6.6,5.66c4.98,2.27,10.05,3.43,15.09,3.43h1.23c5.06,0,10.07-1.15,14.89-3.43c2.69-1.24,4.93-3.14,6.63-5.64
			c1.72-2.52,2.58-5.53,2.58-8.96v-29.37c0-0.44-0.17-1.09-0.96-1.61C275.01,239.7,274.38,239.51,273.67,239.51z"/>
		<path class="st0" d="M402.74,284.07h-33.23v-42.4c0-0.44-0.17-1.09-0.96-1.61c-0.54-0.36-1.17-0.55-1.87-0.55h-1.02
			c-0.71,0-1.34,0.19-1.86,0.54c-0.8,0.54-0.96,1.17-0.96,1.62v43.6c0,1.7,0.87,3.73,4.96,3.73h34.95c0.71,0,1.34-0.19,1.84-0.57
			c0.74-0.54,0.88-1.17,0.88-1.59v-0.61C405.47,285.58,405.2,284.07,402.74,284.07z"/>
		<path class="st0" d="M499.04,240.06c-0.54-0.36-1.17-0.55-1.87-0.55h-0.91c-0.79,0-1.43,0.19-1.94,0.57
			c-0.74,0.54-0.88,1.17-0.88,1.59v45.17c0,0.43,0.16,1.06,0.88,1.59c0.5,0.38,1.17,0.57,1.95,0.57h0.91c0.71,0,1.32-0.19,1.86-0.55
			c0.79-0.54,0.96-1.17,0.96-1.61v-45.17C500,241.23,499.83,240.58,499.04,240.06z"/>
	</g>
</g>
<path class="st0" d="M318.55,29.6c-0.05-0.05-0.09-0.08-0.14-0.11c-0.03-0.06-0.06-0.11-0.11-0.16c-3.44-3.62-7.18-6.96-11.09-9.97
	c-0.03-0.03-0.08-0.05-0.11-0.06c-0.03-0.03-0.08-0.08-0.12-0.11c-7.32-5.56-15.46-10.03-24.22-13.3c-0.05-0.03-0.09-0.05-0.16-0.05
	c-4.1-1.51-8.17-2.72-12.1-3.59c-0.02,0-0.02,0-0.03,0c-0.03-0.02-0.05-0.02-0.08-0.02C263.66,0.74,256.8,0,249.98,0
	c-0.19,0-0.38,0-0.57,0.02l-0.35,0.02c-0.19,0-0.38,0-0.57,0.02l-1.13,0.03c-0.54,0.02-1.06,0.02-1.59,0.05
	c-9.42,0.41-18.71,2.25-27.64,5.47c-0.06,0.02-0.12,0.03-0.17,0.06c-12.73,4.6-24.55,12.07-34.19,21.58l-0.19,0.17
	c-17.97,17.84-27.86,41.55-27.86,66.76c0,9.53,1.44,18.97,4.26,28.01c12.33,39.61,48.51,66.22,90.02,66.22
	c41.51,0,77.69-26.61,90.03-66.22c2.83-9.04,4.26-18.45,4.26-28C344.27,70.09,335.13,47.17,318.55,29.6z M318.48,42.84
	c0.19-1.02,0.14-3.47,0.02-5.91c9.51,11.33,16.09,24.82,19.06,39.15c-1.41,24.44-15.27,48.83-34.55,60.71
	c-9.91,6.11-21.09,8.46-33.29,6.95c-4.39-0.54-8.98-1.8-14.44-3.97l-10.63-4.27l11.42,0.9c6.41,0.49,11.79,0.61,17.21-0.41
	c11.91-2.27,22.15-7.25,30.45-14.83c12.01-10.97,18.4-25.05,19.53-43.11c0.66-10.52-0.81-21.08-4.37-31.35
	C318.55,45.7,318.19,44.37,318.48,42.84z M316.74,34.9l-0.3,1.39c-1.17,5.42-2.49,11.55-4.44,14.23
	c-6.07,8.37-14.36,12.7-24.68,12.83c-0.98,0.03-2.81,0.09-3.71-1.89c-1.39-3.1-3.27-6.19-6.06-10.02l-2.3-3.14
	c1.23,0.11,3.83,0.36,3.88,0.36c6.58,0.63,12.72-1.4,17.8-5.91c5-4.43,8.38-10.87,9.37-17.8C310.03,27.96,313.52,31.29,316.74,34.9z
	 M287.12,72.19c-0.11-1.01,0.09-1.83,0.58-2.44c0.5-0.6,1.23-0.95,2.16-1.02c3.96-0.32,7.34-1.1,10.34-2.4
	c0.9-0.38,1.66-0.38,2.34,0.03c0.36,0.22,0.61,0.5,0.79,0.93c0.03,0.06,0.06,0.12,0.09,0.17c0.06,0.17,0.09,0.33,0.14,0.6
	c0.03,0.19,0.03,0.35,0.05,0.49l0.02,0.27c0.9,6.73,0.08,13.5-2.45,20.67l-0.03,0.05c-0.02,0.02-0.02,0.03-0.03,0.06
	c-0.5,1.42-1.06,2.82-1.64,4.18c-4.12,9.42-10.1,16.29-18.27,20.98c-7.73,4.44-16.27,5.99-25.34,4.52l-9.17-1.5l9.09-1.94
	c3.41-0.72,7.43-1.72,11.31-3.5c1.31-0.6,2.57-1.28,3.74-2c9.97-6.3,15.57-15.61,16.61-27.7C287.77,78.96,287.47,75.28,287.12,72.19
	z M278.71,10.33c0.11-0.17,0.24-0.33,0.38-0.52c6.5,2.24,12.7,5.23,18.49,8.89c-0.77,0.57-1.59,1.07-2.48,1.5
	c-3.99,1.91-8.66,2.08-12.81,0.44c-2.4-0.85-4.07-2.43-4.72-4.43C277.17,14.87,277.01,12.8,278.71,10.33z M265.52,6.28
	c3.83,0.68,7.62,1.61,11.36,2.79c-0.96,0.69-1.7,1.48-2.24,2.36c-1.72,2.82-1.62,6.44,0.24,9.44c1.66,2.68,4.44,4.46,8.03,5.17
	c1.67,0.35,3.49,0.44,5.4,0.25c4.48-0.4,8.69-3.07,10.68-6.71c2.07,1.36,4.07,2.79,6.03,4.32c-2.7,5.99-6.14,10.67-10.21,13.93
	c-5.03,4.05-11.72,5.77-18.35,4.73c-6.83-1.06-12.88-4.85-16.58-10.43c-5.09-7.66-4.28-15.93,2.29-22.66
	c0.6-0.61,1.74-1.64,3.14-2.8C265.41,6.57,265.49,6.43,265.52,6.28z M181.7,36.63c-0.03,0.27-0.05,0.54-0.08,0.8
	c-0.2,2.84,0.73,7.15,1.5,10.63c0.4,1.83,0.69,3.2,0.85,4.27c0.4,2.8-0.85,3.21-2.79,3.83c-0.63,0.2-1.28,0.41-2.07,0.8
	c-1.02,0.5-2.42,0.93-3.95,1.4c-1.59,0.49-3.25,0.98-4.5,1.64c-1.64,0.85-3.11,1.81-4.44,2.88
	C169.82,53.39,175.02,44.51,181.7,36.63z M165.53,65.35c3.08-1.51,6.36-2.76,10.06-3.83c1.23-0.36,2.7-0.46,3.96-0.5l1.72-0.03
	c3.9-0.05,8.74-0.09,9.64-4.1c0.66-2.93-0.96-5.96-2.57-8.93c-0.96-1.78-1.96-3.64-2.42-5.44c-0.74-2.85-1.25-5.77-1.54-8.92
	c5.76-6.21,12.36-11.47,19.55-15.82c-0.52,0.64-1.06,1.29-1.54,2c-4.62,6.57-6.01,14.02-4.15,22.18
	c1.45,6.33,5.02,11.94,11.23,17.65c4.29,3.94,8.84,7.17,14.33,10.97c2.03,1.42,3.99,2.84,5.74,4.71c0.73,0.8,1.01,1.56,0.84,2.35
	c-0.22,0.96-1.04,1.92-2.79,1.7c-1.72-0.2-3.04-0.87-4.21-1.47l-0.69-0.35c-9.37-4.52-18.02-6.71-26.4-6.71
	c-2.92,0-5.9,0.27-8.88,0.8c-7.3,1.32-18.17,6.62-25.02,14.04l0,0l-0.07,0.08c-0.03,0.04-0.07,0.08-0.1,0.11l-1.33,1.47
	c0.56-7.49,2.06-14.85,4.47-21.9C165.4,65.4,165.46,65.38,165.53,65.35z M160.69,89.7c0.44-0.6,0.99-1.16,1.48-1.61
	c1.58-1.36,3.12-2.6,3.98-3.26c9.81-7.63,25.02-11.12,37.85-8.68c5.9,1.12,11.25,3.5,16.14,5.91c3.39,1.67,6.5,2.98,10.03,2.82
	c2.13-0.11,4.05-1.04,5.27-2.57c1.1-1.4,1.53-3.15,1.21-4.93c-0.27-1.45-1.02-2.79-2.51-4.35c-2.75-2.92-6.04-5.29-9.21-7.58
	l-1.94-1.4c-5.16-3.73-10.49-7.61-14.59-12.97c-5.98-7.8-7.45-16.58-4.5-26.85l1.93-6.7c0.08-0.28-0.05-0.57-0.28-0.74
	c0.43-0.25,0.84-0.52,1.26-0.76l0.52,8.57c0.55,8.96,4.28,16.24,11.74,22.92c3.49,3.1,7.42,6.05,10.89,8.65l0.77,0.58
	c1.72,1.29,4.08,3.07,6.26,4.84c4.15,3.34,8.43,7.06,11.01,12.48c2.71,5.69,1.78,11.85-2.46,16.07c-4.1,4.1-9.42,5.56-16.71,4.62
	c-4.32-0.57-8.36-2.1-12.42-3.61c-3.8-1.42-7.73-2.9-11.87-3.48c-9.07-1.31-17.58-0.08-24.79,3.53
	c-8.54,4.24-15.14,12.31-17.35,21.13l-0.03,0.04c-1.21-5.96-1.84-12.05-1.84-18.16C160.54,92.72,160.6,91.21,160.69,89.7z
	 M170.39,134.86l-0.28-0.54c-0.2-0.4-0.41-0.79-0.6-1.18c-0.66-1.34-1.31-2.77-1.97-4.36c-0.38-0.9-0.73-1.81-1.07-2.72
	c-0.25-0.68-0.5-1.36-0.76-2.05c-0.38-1.06-0.76-2.13-1.13-3.34l-0.06-0.2c-0.57-1.86-1.09-3.74-1.53-5.63
	c0.18-0.5,0.41-1.02,0.64-1.48c0.01-0.02,0.02-0.03,0.03-0.05c3.53-7.03,8.92-12.81,15.54-16.72c8.44-4.98,18.7-6.63,28.15-4.59
	c3.49,0.76,6.88,2.03,10.18,3.28c3.76,1.42,7.64,2.87,11.64,3.56c7.04,1.23,13.87-0.3,19.22-4.24c5.4-3.97,7.65-9.42,6.71-16.18
	c-0.54-3.83-2.21-7.5-5.25-11.55c-3.79-5.01-8.88-8.81-13.82-12.46l-1.59-1.2c-5.57-4.18-11.88-8.89-16.57-15.28
	c-4.94-6.73-6.63-13.33-5.13-20.17c0.4-1.83,1.02-3.64,1.91-5.56c6.53-2.82,13.41-4.85,20.48-6.03c-2.83,2.24-4.18,4.49-5.38,8.44
	c-4.78,15.87,7.27,26.66,17.91,36.17l0.47,0.43c4.88,4.36,9.91,8.87,13.52,14.75c5.71,9.3,5.71,20.06-0.02,28.11
	c-3.64,5.11-8.9,8.52-16.52,10.73c-0.33,0.09-0.55,0.44-0.5,0.79c0.05,0.35,0.35,0.6,0.69,0.6h0.02c1.07-0.02,2.11-0.09,3.17-0.25
	c7.68-1.13,14.17-5.17,18.29-11.39c4.1-6.19,5.25-13.71,3.28-21.18c-1.62-6.13-5.08-11.75-10.89-17.69c-2.07-2.1-4.23-4.18-6.22-6.1
	l-1.12-1.06c-1.88-1.81-3.64-3.51-5.35-5.25c-4.39-4.44-7.48-9.07-9.42-14.13c-3.33-8.65-2.29-15.82,3.23-21.87
	c0.69-0.77,1.44-1.45,2.08-2.03c2.75-0.24,5.25-0.35,7.67-0.35c4.59,0,9.15,0.35,13.68,1.06c-3.77,2.14-7.43,5.14-9.72,7.96
	c-3.6,4.44-4.45,9.03-2.62,13.96c1.39,3.7,3.98,6.82,6.5,9.72c4.71,5.41,10.19,10.02,14.61,15.69c8.08,10.35,11.17,20.94,9.44,32.38
	c-2.29,15.14-16.2,27.27-31.68,27.64c-7.29,0.16-14.18-1.07-21.17-3.73c-5.03-1.91-11.72-4.18-18.86-4.84
	c-12.57-1.07-22.34,2.2-29.88,10.08c-6.42,6.73-9.37,14.78-8.38,22.85C171.38,136.77,170.87,135.82,170.39,134.86z M186.02,156.58
	c-1.93-1.95-3.77-4.03-5.52-6.18l-0.76-0.98c-0.76-0.96-1.5-1.94-2.21-2.92l-0.24-0.33c-0.27-0.38-0.54-0.74-0.81-1.13
	c-0.6-0.87-1.18-1.75-1.77-2.65c-0.47-0.73-0.92-1.46-1.35-2.18c0.05-0.32,0.1-0.67,0.15-0.98c0-0.01,0.01-0.02,0.01-0.03l0.12-0.83
	v0l0,0l0.16-1.03c0.06-0.38,0.11-0.77,0.16-1.12c1.72-12.43,10.6-22.56,22.62-25.79c7.97-2.14,16.33-1.53,25.54,1.84
	c2.6,0.96,5.3,2.02,7.67,2.96l1.07,0.43c3.25,1.29,6.33,2.52,9.37,3.61c9.48,3.4,17.58,5.4,26.18,4.13
	c15.98-2.38,27.9-10.68,35.36-24.69c5.52-10.35,7.42-21.74,5.62-33.81c-0.14-0.96-0.43-2.76,1.12-4.18c2.37-2.19,4.23-4.4,5.7-6.74
	l1.1-1.8l1.56,1.43c0.88,0.8,1.07,1.75,1.17,2.27c1.85,9.25,2.11,18.23,0.76,26.67c-3.22,20.14-13.71,35.12-31.22,44.49
	c-11.28,6.05-23.26,8.1-35.59,6.08c-9.21-1.51-17.48-4.68-24.35-7.58c-8.08-3.4-14.93-4.76-21.61-4.32
	c-9.07,0.63-15.71,4.66-19.74,12.02C182.39,140.46,182.39,149.25,186.02,156.58z M205,171.37c-2.24-1.31-4.42-2.71-6.66-4.28
	c-2.13-1.51-4.21-3.12-6.17-4.79c-0.63-0.54-1.25-1.07-1.86-1.62c0-0.02-0.02-0.03-0.02-0.05c-1.17-2.33-2.05-4.82-2.67-7.42
	c-1.86-8,0.38-16.04,6-21.49c5.03-4.9,12.05-6.79,18.74-5.04l3.33,0.87l-2.67,2.17c-2.08,1.68-3.72,3.15-5,4.88
	c-6.88,9.39-7.1,22.78-0.52,32.58c2.76,4.1,5.93,7.44,9.61,10.07C212.98,175.64,208.91,173.65,205,171.37z M229.32,181.11
	l-4.28-1.94c-7.7-3.48-12.88-8.82-15.84-16.32c-4.21-10.68-1.7-23.46,6.07-31.05c1.83-1.8,2.86-2.65,4.34-2.65
	c1.01,0,2.08,0.41,3.76,1.09c1.33,0.54,2.63,1.06,3.98,1.59l6.77,2.69l-2.76,1.84c-6.58,4.38-10.68,10.93-11.55,18.43
	c-0.92,7.83,1.74,15.68,7.24,21.57l4.99,5.32C231.1,181.52,230.2,181.31,229.32,181.11z M241.31,183.09c-0.02,0-0.05,0-0.06,0
	c-0.03,0-0.08,0-0.11,0.02c-0.25-0.03-0.5-0.06-0.76-0.09l-0.47-0.05c-5.89-4.49-10-9.83-12.61-16.31
	c-4.04-10.08-1.36-19.81,7.37-26.64c1.93-1.51,4.57-2.98,8.16-0.79l0.12,0.05c0.08,0.05,8.17,4.51,14.88,6.1
	c-1.62,0.28-4.23,0.9-6.94,2.17c-2.49,1.36-4.73,3.14-6.88,5.48c-3.98,4.36-5.09,9.11-3.44,14.53c1.58,5.12,5.02,9.04,10.51,11.96
	c3.17,1.68,6.41,2.79,9.78,3.34C254.35,183.64,248.03,183.74,241.31,183.09z M320.54,130.86c-0.27,8.35-1.8,16.45-4.43,23.44
	c-0.36,0.4-0.73,0.77-1.1,1.16l-0.44,0.46c-1.94,2.02-3.95,3.92-5.98,5.69c-6.41,5.55-13.52,10.15-21.16,13.67
	c-0.05,0.02-0.09,0.05-0.14,0.08c-1.42,0.64-2.92,1.29-4.47,1.89c-9.18,1.84-18.66,1.62-27.41-0.63c-4.57-1.18-8.66-5.61-9.7-10.54
	c-0.03-0.12-0.09-0.25-0.19-0.35l0.05-0.49c-0.03-0.19-0.03-0.38-0.03-0.57l-0.03-0.66c-0.02-0.2-0.03-0.4-0.03-0.6
	c0-0.35,0.05-0.68,0.11-1.15l0.03-0.32c0.02-0.16,0.03-0.33,0.06-0.49c0.08-0.38,0.22-0.74,0.38-1.21l0.09-0.3
	c0.03-0.11,0.06-0.22,0.11-0.32c0.25-0.6,0.57-1.16,0.93-1.7c3.6-5.17,8.99-8.08,16.06-8.65c2-0.17,4.02-0.19,5.57-0.19l2.21,0.02
	c1.83,0.03,4.56,0.06,7.1-0.12c2.92-0.2,6-0.74,9.47-1.64l14.58-5.47l-1.13,2.32c-0.74,1.53-1.75,3.06-3.04,4.71
	c-0.19,0.25-0.41,0.49-0.63,0.72l-0.38,0.43c-1.07,1.28-2.29,2.49-3.6,3.61c-0.16,0.12-0.32,0.25-0.49,0.36
	c-0.16,0.11-0.33,0.24-0.49,0.36c-1.01,0.8-2.08,1.65-3.27,2.41c-0.3,0.19-0.63,0.36-0.96,0.54c-0.25,0.12-0.49,0.25-0.73,0.4
	l-0.52,0.3c-0.9,0.52-1.75,1.01-2.68,1.44c-0.43,0.19-0.87,0.36-1.33,0.54c-0.3,0.11-0.58,0.22-0.88,0.33l-0.63,0.27
	c-0.88,0.36-1.77,0.72-2.73,1.04c-0.54,0.19-1.1,0.33-1.67,0.47c-0.35,0.09-0.68,0.17-1.02,0.27l-0.9,0.25
	c-0.87,0.25-1.74,0.49-2.67,0.69c-0.68,0.14-1.39,0.27-2.1,0.38l-1.93,0.33c-0.96,0.19-1.91,0.36-2.92,0.49
	c-0.81,0.11-1.66,0.19-2.49,0.25l-2.07,0.2c-1.01,0.11-2.02,0.22-3.09,0.28c-0.87,0.05-1.8,0.08-2.71,0.11l-2.65,0.09
	c-0.82,0.03-1.66,0.08-2.52,0.08c-0.36,0-0.66,0.28-0.69,0.64c-0.03,0.36,0.22,0.69,0.57,0.76c5.11,0.95,11.03,1.81,16.28,1.4
	c12.95-1.09,22.53-4.88,31.07-12.31c0.17-0.14,0.32-0.3,0.54-0.52c0.24-0.25,0.43-0.46,0.66-0.68c2.59-2.76,7.86-8.44,8.53-16.04
	c3.69-2.55,10.35-7.48,13.6-11.91l0.22-0.2L320.54,130.86z M338.45,107.31c-0.05,0.36-0.11,0.72-0.17,1.09l-0.08,0.46
	c-0.33,1.97-0.74,3.99-1.21,6l-0.14,0.64c-0.09,0.38-0.17,0.77-0.27,1.15c-0.24,0.9-0.49,1.76-0.76,2.66l-0.06,0.2
	c-0.24,0.8-0.49,1.59-0.74,2.4c-0.28,0.87-0.57,1.73-0.88,2.58c-0.46,1.28-0.96,2.55-1.48,3.8c-0.33,0.82-0.69,1.64-1.07,2.44
	c-0.47,1.04-0.95,2.08-1.47,3.1c-0.32,0.64-0.65,1.28-0.98,1.91c-0.61,1.16-1.26,2.32-1.93,3.45l-0.32,0.54
	c-0.12,0.2-0.24,0.43-0.36,0.61c-0.88,1.47-1.85,2.93-2.87,4.41l-0.82,1.16c-0.6,0.84-1.21,1.67-1.85,2.51
	c2.51-6.38,3.99-14.19,4.18-22.26c0.06-2.74,0.14-5.86,1.1-8.79l0.08-0.22c1.59-2.41,5.6-8.7,8.32-15.06l3.9-10.35l0.71,7.39
	C339.13,101.83,338.86,104.58,338.45,107.31z"/>
</svg>
